<?xml version="1.0" encoding="utf-8"?>
<!-- Generator: Adobe Illustrator 20.1.0, SVG Export Plug-In . SVG Version: 6.00 Build 0)  -->
<svg version="1.1" id="Calque_1" xmlns="http://www.w3.org/2000/svg" xmlns:xlink="http://www.w3.org/1999/xlink" x="0px" y="0px"
	 viewBox="0 0 691 300" style="enable-background:new 0 0 691 300;" xml:space="preserve">
<style type="text/css">
	.st0{fill:#010101;}
</style>
<path id="XMLID_251_" class="st0" d="M101.6,143.8c-0.4-0.9-0.1-0.6-0.4-3.8c-0.3-3.1-1-0.1-1,0.7c0.1,0.9-0.3,2-0.3,2.4
	c0,0.4,0.5,1.4,0.1,1.5c-0.4,0.1-0.7-0.3-1.2-0.7c-0.5-0.4-0.8,0.2-0.8,0.7s0.5,0.9,0.5,1.5s-0.1,1.3-0.1,2c0,0.7,0.9,1,0.9,1
	s0.3,0.2,0.4,0.5c0.1,0.3-0.8,0.3-1.3,0c-0.5-0.3-0.9-0.8-1.5-0.7c-0.7,0.1-0.7,0.9-0.7,0.9s-0.3,0.4,0,0.6c0.3,0.2,0.9,0.8,1.3,0.8
	c0.5,0-0.2,0.1-1.4-0.3c-1.3-0.4-0.5,1.2-0.5,1.2s0.9,0.4,0.7,1.1c-0.2,0.7-0.6,1,0,1.2s-0.3,0.7-1,0.4c-0.7-0.3-1.4-0.3-1.1,0.1
	c0.3,0.4,0.8,0.2,0.8,1.1c0,0.9,0,1.1,0.3,1.4c0.3,0.3,0.4,0.5,0.3,1.1c-0.1,0.6,0.2,0.7,1.1,0.7c0.9,0,1.8-0.3,1.8,0
	c0,0.3,0.9,1,0.6,1.1c-0.3,0.1,0,0.2-1.4,0c-1.4-0.2-2.1,0-2.2,0.1c-0.1,0.1-0.3,0.1-0.9,0.7c-0.6,0.6-0.2,0.7-0.1,1.2
	c0.1,0.5-0.4,0.7-0.5,1c-0.1,0.3,0.5,0.2,0.8,0.9c0.3,0.8-0.6,0.9-0.8,0.9c-0.2,0-0.4,0.8,0,1.1c0.4,0.3,0.9,1.2,0.9,1.2
	s-0.7,0.1-0.5,0.8c0.2,0.7,0.2,0.6,1.3,1c1.1,0.5,1.9,0.1,2.2,0.5c0.3,0.4-0.1,0.5-0.5,0.5c-0.4,0-0.7-0.2-1.4,0
	c-0.7,0.2-1.4,0-1.4,0s-0.3-0.9-0.5,0.1c-0.1,1,0.5,0.2,0.7,1.1s-0.7,1.1-1.1,0.7c-0.5-0.5-2-1.1-2-0.6c0,0.5,0.1,0.9,0.6,1.6
	c0.5,0.7,1.4,0.9,2.1,1c0.7,0.1,1.5,0.3,1.2,0.6s-0.8,0.4-1,0.5c-0.3,0.1-1,0.5-0.9,1.2c0.1,0.7-0.7,0.8-0.8,1
	c-0.1,0.2-0.6,1.2-0.2,1.6c0.4,0.5-0.1,1-0.5,1.2c-0.5,0.1-1.2,1.2-0.5,1.4c0.8,0.2,1.8,0.7,2.2,0.7c0.4,0,2-0.5,2.4-0.7
	c0.4-0.1,1.4-0.5,1.6-0.5c0.2,0,0.1,0.9-0.9,1.2c-1,0.3-2.5,0.3-3.3,0.5c-0.8,0.3-1.4,0.5-1,1c0.3,0.5,0.3,0.7,1,0.9
	c0.7,0.2,2.2,0.7,2.9,0c0.7-0.7,1.6-0.7,2.4-1.2c0.7-0.5,0.7-0.2,0.5,0.5c-0.1,0.7-0.8,0.2-1.3,1c-0.5,0.8-0.4,1.4-0.2,1.5
	c0.2,0.1,0.9,0.5,1.2,0c0.3-0.5,0.9-0.7,0.9-0.7l-0.1,5.2h1.8v-5.4c0,0,0.8,0.3,0.9,0.8c0.1,0.5,0.6,0.6,1.2,0.3
	c0.6-0.3,1.9-0.7,1.2-1.2c-0.7-0.5-1-1.4-1.5-1.5c-0.5-0.1-1.2-0.9-0.3-0.7c0.9,0.1,0.9,0.5,1.9,0.5s1.2,0.3,2.2,0.1
	c1-0.1,2.5-0.3,2.1-1c-0.4-0.7-1.1-0.9-1.4-1.5s1.1-0.2,0.4-1.3c-0.7-1.1,0.3-1.2-0.7-1.1c-1,0.1-0.9-1.1-2.1-0.8
	c-1.2,0.3-1.8-0.1-1.4-0.7c0.4-0.5,0-0.7-0.5-0.7c-0.5,0-1.4-0.5-1.4-0.5s0.9-0.3,1.6-0.3c0.7,0,0.4,0.4,2.1,0.3s0.9-0.5,1.8-0.6
	c0.9-0.1,1.9,0,2.1-0.7c0.2-0.7-0.1-0.8-0.7-1.1c-0.5-0.3-1,0.1-1.9,0.3c-0.9,0.2-1.1,0.4-1.4-0.1c-0.3-0.5,0.2-0.3,0.6-1
	c0.5-0.7,1.4-0.9,1-1.4c-0.3-0.6-1.8-0.1-1.7-0.1c0.1,0,0.7-0.5,0.7-1c0-0.5-0.2-0.6-0.7-0.4c-0.5,0.2-0.6,0.3-1.5,0.5
	c-0.9,0.1,0.7-0.3,0.9-0.9c0.3-0.7,0.7-1,0.6-1.3c-0.2-0.3-0.1-0.7,0-1.2c0.1-0.5-0.6-0.4,0-0.9c0.6-0.5,0-1.1,0-0.9
	s-1.1,0.6-1.3,0.6c-0.2,0-0.5-1.1,0.3-1.2c0.9,0,1.8-0.7,2.1-0.9c0.3-0.3,1-0.4,0.7-0.9c-0.3-0.6-1.5,0.2-1.8,0
	c-0.3-0.2-0.4-0.8,0-1.1c0.4-0.4,0.6-0.9,0.7-1c0.1-0.2,1-1.2,0.2-1c-0.9,0.2-0.9,0.6-1.9,0.6c-1,0-1,0.3-2-0.1
	c-0.9-0.5,0.1-0.5,0.7-0.9c0.6-0.4,1.2-1.2,1.6-1.2s1.2,0.7,1.5,0c0.3-0.7-0.6-1.1-0.8-1c-0.2,0.1-0.6-0.5-0.6-1.2
	c0-0.7,0.7-0.9,0.6-1.4s0.1-1.3-0.6-1.3c-0.7,0-1.2,0.1-1.8,0.1c-0.6,0-1,0-1.3-0.3c-0.3-0.3,0.3-0.7,0.8-0.2c0.5,0.5,2-0.5,2-0.5
	s0.5-0.4,0.5-1c0-0.6-0.9-0.1-0.9-0.1s-1.4,0.1-1.8,0c-0.3-0.1,0.1-0.5,0.5-0.8c0.4-0.3,1-0.4,1.1-0.9c0.1-0.5,0.8-0.3,0.1-0.5
	c-0.7-0.2-0.9-0.2-0.7-0.8c0.3-0.6,1-0.6,0.3-0.6c-0.7,0,0.3,0.1-0.7,0c-1-0.1-1,0.8-1-0.1s-1-0.7,0-0.9c1-0.1,1.7-0.2,1.7-0.2
	s0.2-1-0.5-0.8c-0.7,0.2-1.1,0.6-1.2,0c-0.1-0.6,0.2-0.3,0.5-0.7c0.3-0.5,0.8-1,0.4-1.2c-0.4-0.2-0.9-0.5-1-0.8
	c-0.1-0.3-0.4-1.3-0.9-0.5C101.6,143.8,101.6,143.8,101.6,143.8z"/>
<path id="XMLID_250_" class="st0" d="M116.4,147.7c-0.4-0.9-0.1-0.6-0.4-3.8s-1-0.1-1,0.7c0.1,0.9-0.3,2-0.3,2.4
	c0,0.4,0.5,1.4,0.1,1.5c-0.4,0.1-0.7-0.3-1.2-0.7c-0.5-0.4-0.8,0.2-0.8,0.7c0,0.5,0.5,0.9,0.5,1.5c0,0.6-0.1,1.3-0.1,2
	c0,0.7,0.9,1,0.9,1s0.3,0.2,0.4,0.5c0.1,0.3-0.8,0.3-1.3,0s-0.9-0.8-1.5-0.7c-0.7,0.1-0.7,0.9-0.7,0.9s-0.3,0.4,0,0.6
	c0.3,0.2,0.9,0.8,1.3,0.8c0.5,0-0.2,0.1-1.4-0.3c-1.3-0.4-0.5,1.2-0.5,1.2s0.9,0.4,0.7,1.1c-0.2,0.7-0.6,1,0,1.2
	c0.6,0.3-0.3,0.7-1,0.4c-0.7-0.3-1.4-0.3-1.1,0.1c0.3,0.4,0.8,0.2,0.8,1.1s0,1.1,0.3,1.4c0.3,0.3,0.4,0.5,0.3,1.1
	c-0.1,0.6,0.2,0.7,1.1,0.7c0.9,0,1.8-0.3,1.8,0c0,0.3,0.9,1,0.6,1.1c-0.3,0.1,0,0.2-1.4,0c-1.4-0.2-2.1,0-2.2,0.1
	c-0.1,0.1-0.3,0.1-0.9,0.7c-0.6,0.6-0.2,0.7-0.1,1.2c0.1,0.5-0.4,0.7-0.5,1c-0.1,0.3,0.5,0.2,0.8,0.9c0.3,0.8-0.6,0.9-0.8,0.9
	c-0.2,0-0.4,0.8,0,1.1c0.4,0.3,0.9,1.2,0.9,1.2c0,0-0.7,0.1-0.5,0.8c0.2,0.7,0.2,0.6,1.3,1c1.1,0.5,1.9,0.1,2.2,0.5
	c0.3,0.4-0.1,0.5-0.5,0.5c-0.4,0-0.7-0.2-1.4,0c-0.7,0.2-1.4,0-1.4,0s-0.3-0.9-0.5,0.1c-0.1,1,0.5,0.2,0.7,1.1
	c0.2,0.9-0.7,1.1-1.1,0.7c-0.5-0.5-2-1.1-2-0.6c0,0.5,0.1,0.9,0.6,1.6c0.5,0.7,1.4,0.9,2.1,1c0.7,0.1,1.5,0.3,1.2,0.6
	s-0.8,0.4-1,0.5c-0.3,0.1-1,0.5-0.9,1.2c0.1,0.7-0.7,0.8-0.8,1c-0.1,0.2-0.6,1.2-0.2,1.6c0.4,0.5-0.1,1-0.5,1.2
	c-0.5,0.1-1.2,1.2-0.5,1.4c0.8,0.2,1.8,0.7,2.2,0.7c0.4,0,2-0.5,2.4-0.7c0.4-0.1,1.4-0.5,1.6-0.5c0.2,0,0.1,0.9-0.9,1.2
	s-2.5,0.3-3.3,0.5c-0.8,0.3-1.4,0.5-1,1c0.3,0.5,0.3,0.7,1,0.9c0.7,0.2,2.2,0.7,2.9,0c0.7-0.7,1.6-0.7,2.4-1.2
	c0.7-0.5,0.7-0.2,0.5,0.5c-0.1,0.7-0.8,0.2-1.3,1c-0.5,0.8-0.4,1.4-0.2,1.5c0.2,0.1,0.9,0.5,1.2,0c0.3-0.5,0.9-0.7,0.9-0.7l-0.1,5.2
	h1.8v-5.4c0,0,0.8,0.3,0.9,0.8c0.1,0.5,0.6,0.6,1.2,0.3c0.6-0.3,1.9-0.7,1.2-1.2c-0.7-0.5-1-1.4-1.5-1.5c-0.5-0.1-1.2-0.9-0.3-0.7
	c0.9,0.1,0.9,0.5,1.9,0.5c1.1,0,1.2,0.3,2.2,0.1c1-0.1,2.5-0.3,2.1-1c-0.4-0.7-1.1-0.9-1.4-1.5c-0.3-0.6,1.1-0.2,0.4-1.3
	c-0.7-1.1,0.3-1.2-0.7-1.1c-1,0.1-0.9-1.1-2.1-0.8c-1.2,0.3-1.8-0.1-1.4-0.7c0.4-0.5,0-0.7-0.5-0.7c-0.5,0-1.4-0.5-1.4-0.5
	s0.9-0.3,1.6-0.3c0.7,0,0.4,0.4,2.1,0.3c1.8-0.1,0.9-0.5,1.8-0.6c0.9-0.1,1.9,0,2.1-0.7c0.2-0.7-0.1-0.8-0.7-1.1
	c-0.5-0.3-1,0.1-1.9,0.3c-0.9,0.2-1.1,0.4-1.3-0.1c-0.3-0.5,0.2-0.3,0.6-1c0.5-0.7,1.4-0.9,1-1.4c-0.3-0.6-1.8-0.1-1.7-0.1
	c0.1,0,0.7-0.5,0.7-1c0-0.5-0.2-0.6-0.7-0.4c-0.5,0.2-0.6,0.3-1.5,0.5c-0.9,0.1,0.7-0.3,0.9-0.9c0.3-0.7,0.7-1,0.6-1.3
	c-0.2-0.3-0.1-0.7,0-1.2c0.1-0.5-0.6-0.4,0-0.9c0.6-0.5,0-1.1,0-0.9c0,0.3-1.1,0.6-1.3,0.6c-0.2,0-0.5-1.1,0.3-1.2
	c0.9,0,1.8-0.7,2.1-0.9c0.3-0.3,1-0.4,0.7-0.9c-0.3-0.6-1.5,0.2-1.8,0c-0.3-0.2-0.4-0.8,0-1.1c0.4-0.4,0.6-0.9,0.7-1
	c0.1-0.2,1-1.2,0.2-1c-0.9,0.2-0.9,0.6-1.9,0.6c-1,0-1,0.3-2-0.1c-0.9-0.5,0.1-0.5,0.7-0.9c0.6-0.4,1.2-1.2,1.6-1.2
	c0.3,0,1.2,0.7,1.5,0c0.3-0.7-0.6-1.1-0.8-1c-0.2,0.1-0.6-0.5-0.6-1.2s0.7-0.9,0.6-1.4c-0.1-0.5,0.1-1.3-0.6-1.3s-1.2,0.1-1.8,0.1
	s-1,0-1.3-0.3c-0.3-0.3,0.3-0.7,0.8-0.2c0.5,0.5,2-0.5,2-0.5s0.5-0.4,0.5-1c0-0.6-0.9-0.1-0.9-0.1s-1.4,0.1-1.8,0
	c-0.3-0.1,0.1-0.5,0.5-0.8c0.4-0.3,1-0.4,1.1-0.9c0.1-0.5,0.8-0.3,0.1-0.5c-0.7-0.2-0.9-0.2-0.7-0.8c0.3-0.6,1-0.6,0.3-0.6
	s0.3,0.1-0.7,0c-1-0.1-1,0.8-1-0.1s-1-0.7,0-0.9c1-0.1,1.7-0.2,1.7-0.2s0.2-1-0.5-0.8c-0.7,0.2-1.1,0.6-1.2,0
	c-0.1-0.6,0.2-0.3,0.5-0.7c0.3-0.5,0.8-1,0.4-1.2c-0.4-0.2-0.9-0.5-1-0.8c-0.1-0.3-0.4-1.3-0.9-0.5
	C116.4,147.7,116.4,147.7,116.4,147.7z"/>
<path id="XMLID_249_" class="st0" d="M89.9,145.9c-0.4-0.9-0.1-0.6-0.4-3.8c-0.3-3.1-1-0.1-1,0.7c0.1,0.9-0.3,2-0.3,2.4
	c0,0.4,0.5,1.4,0.1,1.5c-0.4,0.1-0.7-0.3-1.2-0.7c-0.5-0.4-0.8,0.2-0.8,0.7c0,0.5,0.5,0.9,0.5,1.5c0,0.6-0.1,1.3-0.1,2
	c0,0.7,0.9,1,0.9,1s0.3,0.2,0.4,0.5c0.1,0.3-0.8,0.3-1.3,0c-0.5-0.3-0.9-0.8-1.5-0.7c-0.7,0.1-0.7,0.9-0.7,0.9s-0.3,0.4,0,0.6
	c0.3,0.2,0.9,0.8,1.3,0.8c0.5,0-0.2,0.1-1.4-0.3c-1.3-0.4-0.5,1.2-0.5,1.2s0.9,0.4,0.7,1.1c-0.2,0.7-0.6,1,0,1.2
	c0.6,0.3-0.3,0.7-1,0.4c-0.7-0.3-1.4-0.3-1.1,0.1c0.3,0.4,0.8,0.2,0.8,1.1s0,1.1,0.3,1.4c0.3,0.3,0.4,0.5,0.3,1.1
	c-0.1,0.6,0.2,0.7,1.1,0.7c0.9,0,1.8-0.3,1.8,0c0,0.3,0.9,1,0.6,1.1c-0.3,0.1,0,0.2-1.4,0c-1.4-0.2-2.1,0-2.2,0.1
	c-0.1,0.1-0.3,0.1-0.9,0.7c-0.6,0.6-0.2,0.7-0.1,1.2c0.1,0.5-0.4,0.7-0.5,1c-0.1,0.3,0.5,0.2,0.8,0.9c0.3,0.8-0.6,0.9-0.8,0.9
	c-0.2,0-0.4,0.8,0,1.1c0.4,0.3,0.9,1.2,0.9,1.2c0,0-0.7,0.1-0.5,0.8c0.2,0.7,0.2,0.6,1.3,1c1.1,0.5,1.9,0.1,2.2,0.5
	c0.3,0.4-0.1,0.5-0.5,0.5c-0.4,0-0.7-0.2-1.4,0c-0.7,0.2-1.4,0-1.4,0s-0.3-0.9-0.5,0.1c-0.1,1,0.5,0.2,0.7,1.1
	c0.2,0.9-0.7,1.1-1.1,0.7c-0.5-0.5-2-1.1-2-0.6s0.1,0.9,0.6,1.6c0.5,0.7,1.4,0.9,2.1,1c0.7,0.1,1.5,0.3,1.2,0.6
	c-0.3,0.3-0.8,0.4-1,0.5c-0.3,0.1-1,0.5-0.9,1.2c0.1,0.7-0.7,0.8-0.8,1c-0.1,0.2-0.6,1.2-0.2,1.6c0.4,0.5-0.1,1-0.5,1.2
	c-0.5,0.1-1.2,1.2-0.5,1.4s1.8,0.7,2.2,0.7c0.4,0,2-0.5,2.4-0.7c0.4-0.1,1.4-0.5,1.6-0.5c0.2,0,0.1,0.9-0.9,1.2
	c-1,0.3-2.5,0.3-3.3,0.5c-0.8,0.3-1.4,0.5-1,1c0.3,0.5,0.3,0.7,1,0.9c0.7,0.2,2.2,0.7,2.9,0c0.7-0.7,1.6-0.7,2.4-1.2
	c0.7-0.5,0.7-0.2,0.5,0.5c-0.1,0.7-0.8,0.2-1.3,1c-0.5,0.8-0.4,1.4-0.2,1.5c0.2,0.1,0.9,0.5,1.2,0c0.3-0.5,0.9-0.7,0.9-0.7l-0.1,5.2
	h1.8v-5.4c0,0,0.8,0.3,0.9,0.8c0.1,0.5,0.6,0.6,1.2,0.3c0.6-0.3,1.9-0.7,1.2-1.2c-0.7-0.5-1-1.4-1.5-1.5c-0.5-0.1-1.2-0.9-0.3-0.7
	c0.9,0.1,0.9,0.5,1.9,0.5c1.1,0,1.2,0.3,2.2,0.1c1-0.1,2.5-0.3,2.1-1c-0.4-0.7-1.1-0.9-1.4-1.5c-0.3-0.6,1.1-0.2,0.4-1.3
	c-0.7-1.1,0.3-1.2-0.7-1.1c-1,0.1-0.9-1.1-2.1-0.8c-1.2,0.3-1.8-0.1-1.4-0.7c0.4-0.5,0-0.7-0.5-0.7c-0.5,0-1.4-0.5-1.4-0.5
	s0.9-0.3,1.6-0.3c0.7,0,0.4,0.4,2.1,0.3c1.8-0.1,0.9-0.5,1.8-0.6c0.9-0.1,1.9,0,2.1-0.7c0.2-0.7-0.1-0.8-0.7-1.1
	c-0.5-0.3-1,0.1-1.9,0.3c-0.9,0.2-1.1,0.4-1.3-0.1c-0.3-0.5,0.2-0.3,0.6-1c0.5-0.7,1.4-0.9,1-1.4c-0.3-0.6-1.8-0.1-1.7-0.1
	c0.1,0,0.7-0.5,0.7-1s-0.2-0.6-0.7-0.4c-0.5,0.2-0.6,0.3-1.5,0.5c-0.9,0.1,0.7-0.3,0.9-0.9c0.3-0.7,0.7-1,0.6-1.3
	c-0.2-0.3-0.1-0.7,0-1.2c0.1-0.5-0.6-0.4,0-0.9c0.6-0.5,0-1.1,0-0.9c0,0.3-1.1,0.6-1.3,0.6c-0.2,0-0.5-1.1,0.3-1.2
	c0.9,0,1.8-0.7,2.1-0.9c0.3-0.3,1-0.4,0.7-0.9c-0.3-0.6-1.5,0.2-1.8,0c-0.3-0.2-0.4-0.8,0-1.1c0.4-0.4,0.6-0.9,0.7-1
	c0.1-0.2,1-1.2,0.2-1c-0.9,0.2-0.9,0.6-1.9,0.6c-1,0-1,0.3-2-0.1c-0.9-0.5,0.1-0.5,0.7-0.9c0.6-0.4,1.2-1.2,1.6-1.2
	c0.3,0,1.2,0.7,1.5,0c0.3-0.7-0.6-1.1-0.8-1c-0.2,0.1-0.6-0.5-0.6-1.2s0.7-0.9,0.6-1.4c-0.1-0.5,0.1-1.3-0.6-1.3
	c-0.7,0-1.2,0.1-1.8,0.1c-0.6,0-1,0-1.3-0.3c-0.3-0.3,0.3-0.7,0.8-0.2c0.5,0.5,2-0.5,2-0.5s0.5-0.4,0.5-1c0-0.6-0.9-0.1-0.9-0.1
	s-1.4,0.1-1.8,0c-0.3-0.1,0.1-0.5,0.5-0.8c0.4-0.3,1-0.4,1.1-0.9c0.1-0.5,0.8-0.3,0.1-0.5c-0.7-0.2-0.9-0.2-0.7-0.8
	c0.3-0.6,1-0.6,0.3-0.6s0.3,0.1-0.7,0c-1-0.1-1,0.8-1-0.1s-1-0.7,0-0.9S93,149,93,149s0.2-1-0.5-0.8c-0.7,0.2-1.1,0.6-1.2,0
	c-0.1-0.6,0.2-0.3,0.5-0.7c0.3-0.5,0.8-1,0.4-1.2c-0.4-0.2-0.9-0.5-1-0.8c-0.1-0.3-0.4-1.3-0.9-0.5
	C89.9,145.9,89.9,145.9,89.9,145.9z"/>
<path id="XMLID_248_" class="st0" d="M66.7,136.4c-0.4-0.9-0.1-0.6-0.4-3.8c-0.3-3.1-1-0.1-1,0.7c0.1,0.9-0.3,2-0.3,2.4
	c0,0.4,0.5,1.4,0.1,1.5c-0.4,0.1-0.7-0.3-1.2-0.7c-0.5-0.4-0.8,0.2-0.8,0.7s0.5,0.9,0.5,1.5c0,0.6-0.1,1.3-0.1,2c0,0.7,0.9,1,0.9,1
	s0.3,0.2,0.4,0.5c0.1,0.3-0.8,0.3-1.3,0c-0.5-0.3-0.9-0.8-1.5-0.7c-0.7,0.1-0.7,0.9-0.7,0.9s-0.3,0.4,0,0.6c0.3,0.2,0.9,0.8,1.3,0.8
	c0.5,0-0.2,0.1-1.4-0.3c-1.3-0.4-0.5,1.2-0.5,1.2s0.9,0.4,0.7,1.1c-0.2,0.7-0.6,1,0,1.2c0.6,0.3-0.3,0.7-1,0.4
	c-0.7-0.3-1.4-0.3-1.1,0.1c0.3,0.4,0.8,0.2,0.8,1.1c0,0.9,0,1.1,0.3,1.4c0.3,0.3,0.4,0.5,0.3,1.1c-0.1,0.6,0.2,0.7,1.1,0.7
	s1.8-0.3,1.8,0s0.9,1,0.6,1.1c-0.3,0.1,0,0.2-1.4,0c-1.4-0.2-2.1,0-2.2,0.1c-0.1,0.1-0.3,0.1-0.9,0.7c-0.6,0.6-0.2,0.7-0.1,1.2
	c0.1,0.5-0.4,0.7-0.5,1c-0.1,0.3,0.5,0.2,0.8,0.9c0.3,0.8-0.6,0.9-0.8,0.9c-0.2,0-0.4,0.8,0,1.1c0.4,0.3,0.9,1.2,0.9,1.2
	c0,0-0.7,0.1-0.5,0.8c0.2,0.7,0.2,0.6,1.3,1c1.1,0.5,1.9,0.1,2.2,0.5c0.3,0.4-0.1,0.5-0.5,0.5c-0.4,0-0.7-0.2-1.4,0
	c-0.7,0.2-1.4,0-1.4,0s-0.3-0.9-0.5,0.1c-0.1,1,0.5,0.2,0.7,1.1c0.2,0.9-0.7,1.1-1.1,0.7c-0.5-0.5-2-1.1-2-0.6
	c0,0.5,0.1,0.9,0.6,1.6c0.5,0.7,1.4,0.9,2.1,1c0.7,0.1,1.5,0.3,1.2,0.6s-0.8,0.4-1,0.5c-0.3,0.1-1,0.5-0.9,1.2
	c0.1,0.7-0.7,0.8-0.8,1c-0.1,0.2-0.6,1.2-0.2,1.6c0.4,0.5-0.1,1-0.5,1.2c-0.5,0.1-1.2,1.2-0.5,1.4c0.8,0.2,1.8,0.7,2.2,0.7
	c0.4,0,2-0.5,2.4-0.7c0.4-0.1,1.4-0.5,1.6-0.5c0.2,0,0.1,0.9-0.9,1.2c-1,0.3-2.5,0.3-3.3,0.5c-0.8,0.3-1.4,0.5-1,1
	c0.3,0.5,0.3,0.7,1,0.9c0.7,0.2,2.2,0.7,2.9,0c0.7-0.7,1.6-0.7,2.4-1.2c0.7-0.5,0.7-0.2,0.5,0.5c-0.1,0.7-0.8,0.2-1.3,1
	c-0.5,0.8-0.4,1.4-0.2,1.5c0.2,0.1,0.9,0.5,1.2,0c0.3-0.5,0.9-0.7,0.9-0.7l-0.1,5.2h1.8v-5.4c0,0,0.8,0.3,0.9,0.8
	c0.1,0.5,0.6,0.6,1.2,0.3c0.6-0.3,1.9-0.7,1.2-1.2c-0.7-0.5-1-1.4-1.5-1.5c-0.5-0.1-1.2-0.9-0.3-0.7c0.9,0.1,0.9,0.5,1.9,0.5
	c1.1,0,1.2,0.3,2.2,0.1c1-0.1,2.5-0.3,2.1-1c-0.4-0.7-1.1-0.9-1.4-1.5c-0.3-0.6,1.1-0.2,0.4-1.3c-0.7-1.1,0.3-1.2-0.7-1.1
	c-1,0.1-0.9-1.1-2.1-0.8c-1.2,0.3-1.8-0.1-1.4-0.7c0.4-0.5,0-0.7-0.5-0.7s-1.4-0.5-1.4-0.5s0.9-0.3,1.6-0.3c0.7,0,0.4,0.4,2.1,0.3
	c1.8-0.1,0.9-0.5,1.8-0.6c0.9-0.1,1.9,0,2.1-0.7c0.2-0.7-0.1-0.8-0.7-1.1c-0.5-0.3-1,0.1-1.9,0.3c-0.9,0.2-1.1,0.4-1.3-0.1
	c-0.3-0.5,0.2-0.3,0.6-1c0.5-0.7,1.4-0.9,1-1.4c-0.3-0.6-1.8-0.1-1.7-0.1c0.1,0,0.7-0.5,0.7-1c0-0.5-0.2-0.6-0.7-0.4
	c-0.5,0.2-0.6,0.3-1.5,0.5c-0.9,0.1,0.7-0.3,0.9-0.9c0.3-0.7,0.7-1,0.6-1.3c-0.2-0.3-0.1-0.7,0-1.2c0.1-0.5-0.6-0.4,0-0.9
	c0.6-0.5,0-1.1,0-0.9c0,0.3-1.1,0.6-1.3,0.6c-0.2,0-0.5-1.1,0.3-1.2c0.9,0,1.8-0.7,2.1-0.9c0.3-0.3,1-0.4,0.7-0.9
	c-0.3-0.6-1.5,0.2-1.8,0c-0.3-0.2-0.4-0.8,0-1.1c0.4-0.4,0.6-0.9,0.7-1c0.1-0.2,1-1.2,0.2-1c-0.9,0.2-0.9,0.6-1.9,0.6
	c-1,0-1,0.3-2-0.1c-0.9-0.5,0.1-0.5,0.7-0.9c0.6-0.4,1.2-1.2,1.6-1.2s1.2,0.7,1.5,0c0.3-0.7-0.6-1.1-0.8-1c-0.2,0.1-0.6-0.5-0.6-1.2
	c0-0.7,0.7-0.9,0.6-1.4c-0.1-0.5,0.1-1.3-0.6-1.3c-0.7,0-1.2,0.1-1.8,0.1c-0.6,0-1,0-1.3-0.3c-0.3-0.3,0.3-0.7,0.8-0.2
	c0.5,0.5,2-0.5,2-0.5s0.5-0.4,0.5-1s-0.9-0.1-0.9-0.1s-1.4,0.1-1.8,0c-0.3-0.1,0.1-0.5,0.5-0.8c0.4-0.3,1-0.4,1.1-0.9
	c0.1-0.5,0.8-0.3,0.1-0.5c-0.7-0.2-0.9-0.2-0.7-0.8c0.3-0.6,1-0.6,0.3-0.6c-0.7,0,0.3,0.1-0.7,0c-1-0.1-1,0.8-1-0.1
	c0-0.9-1-0.7,0-0.9c1-0.1,1.7-0.2,1.7-0.2s0.2-1-0.5-0.8c-0.7,0.2-1.1,0.6-1.2,0c-0.1-0.6,0.2-0.3,0.5-0.7c0.3-0.5,0.8-1,0.4-1.2
	c-0.4-0.2-0.9-0.5-1-0.8c-0.1-0.3-0.4-1.3-0.9-0.5C66.7,136.4,66.7,136.4,66.7,136.4z"/>
<path id="XMLID_247_" class="st0" d="M52.5,143.1c-0.4-0.9-0.1-0.6-0.4-3.8c-0.3-3.1-1-0.1-1,0.7c0.1,0.9-0.3,2-0.3,2.4
	c0,0.4,0.5,1.4,0.1,1.5c-0.4,0.1-0.7-0.3-1.2-0.7c-0.5-0.4-0.8,0.2-0.8,0.7c0,0.5,0.5,0.9,0.5,1.5s-0.1,1.3-0.1,2c0,0.7,0.9,1,0.9,1
	s0.3,0.2,0.4,0.5s-0.8,0.3-1.3,0c-0.5-0.3-0.9-0.8-1.5-0.7c-0.7,0.1-0.7,0.9-0.7,0.9s-0.3,0.4,0,0.6s0.9,0.8,1.3,0.8
	c0.5,0-0.2,0.1-1.4-0.3c-1.3-0.4-0.5,1.2-0.5,1.2s0.9,0.4,0.7,1.1c-0.2,0.7-0.6,1,0,1.2c0.6,0.3-0.3,0.7-1,0.4
	c-0.7-0.3-1.4-0.3-1.1,0.1c0.3,0.4,0.8,0.2,0.8,1.1s0,1.1,0.3,1.4c0.3,0.3,0.4,0.5,0.3,1.1c-0.1,0.6,0.2,0.7,1.1,0.7
	c0.9,0,1.8-0.3,1.8,0c0,0.3,0.9,1,0.6,1.1c-0.3,0.1,0,0.2-1.4,0c-1.4-0.2-2.1,0-2.2,0.1c-0.1,0.1-0.3,0.1-0.9,0.7
	c-0.6,0.6-0.2,0.7-0.1,1.2c0.1,0.5-0.4,0.7-0.5,1c-0.1,0.3,0.5,0.2,0.8,0.9c0.3,0.8-0.6,0.9-0.8,0.9s-0.4,0.8,0,1.1
	c0.4,0.3,0.9,1.2,0.9,1.2s-0.7,0.1-0.5,0.8c0.2,0.7,0.2,0.6,1.3,1c1.1,0.5,1.9,0.1,2.2,0.5c0.3,0.4-0.1,0.5-0.5,0.5
	c-0.4,0-0.7-0.2-1.4,0c-0.7,0.2-1.4,0-1.4,0s-0.3-0.9-0.5,0.1c-0.1,1,0.5,0.2,0.7,1.1c0.2,0.9-0.7,1.1-1.1,0.7c-0.5-0.5-2-1.1-2-0.6
	s0.1,0.9,0.6,1.6s1.4,0.9,2.1,1c0.7,0.1,1.5,0.3,1.2,0.6s-0.8,0.4-1,0.5c-0.3,0.1-1,0.5-0.9,1.2c0.1,0.7-0.7,0.8-0.8,1
	c-0.1,0.2-0.6,1.2-0.2,1.6c0.4,0.5-0.1,1-0.5,1.2c-0.5,0.1-1.2,1.2-0.5,1.4c0.8,0.2,1.8,0.7,2.2,0.7s2-0.5,2.4-0.7
	c0.4-0.1,1.4-0.5,1.6-0.5c0.2,0,0.1,0.9-0.9,1.2c-1,0.3-2.5,0.3-3.3,0.5c-0.8,0.3-1.4,0.5-1,1c0.3,0.5,0.3,0.7,1,0.9
	c0.7,0.2,2.2,0.7,2.9,0c0.7-0.7,1.6-0.7,2.4-1.2c0.7-0.5,0.7-0.2,0.5,0.5c-0.1,0.7-0.8,0.2-1.3,1c-0.5,0.8-0.4,1.4-0.2,1.5
	c0.2,0.1,0.9,0.5,1.2,0c0.3-0.5,0.9-0.7,0.9-0.7l-0.1,5.2h1.8v-5.4c0,0,0.8,0.3,0.9,0.8c0.1,0.5,0.6,0.6,1.2,0.3
	c0.6-0.3,1.9-0.7,1.2-1.2c-0.7-0.5-1-1.4-1.5-1.5c-0.5-0.1-1.2-0.9-0.3-0.7c0.9,0.1,0.9,0.5,1.9,0.5c1.1,0,1.2,0.3,2.2,0.1
	c1-0.1,2.5-0.3,2.1-1c-0.4-0.7-1.1-0.9-1.4-1.5c-0.3-0.6,1.1-0.2,0.4-1.3c-0.7-1.1,0.3-1.2-0.7-1.1c-1,0.1-0.9-1.1-2.1-0.8
	c-1.2,0.3-1.8-0.1-1.4-0.7c0.4-0.5,0-0.7-0.5-0.7c-0.5,0-1.4-0.5-1.4-0.5s0.9-0.3,1.6-0.3c0.7,0,0.4,0.4,2.1,0.3
	c1.8-0.1,0.9-0.5,1.8-0.6c0.9-0.1,1.9,0,2.1-0.7c0.2-0.7-0.1-0.8-0.7-1.1c-0.5-0.3-1,0.1-1.9,0.3c-0.9,0.2-1.1,0.4-1.3-0.1
	c-0.3-0.5,0.2-0.3,0.6-1c0.5-0.7,1.4-0.9,1-1.4c-0.3-0.6-1.8-0.1-1.7-0.1c0.1,0,0.7-0.5,0.7-1s-0.2-0.6-0.7-0.4
	c-0.5,0.2-0.6,0.3-1.5,0.5c-0.9,0.1,0.7-0.3,0.9-0.9c0.3-0.7,0.7-1,0.6-1.3s-0.1-0.7,0-1.2c0.1-0.5-0.6-0.4,0-0.9
	c0.6-0.5,0-1.1,0-0.9c0,0.3-1.1,0.6-1.3,0.6c-0.2,0-0.5-1.1,0.3-1.2c0.9,0,1.8-0.7,2.1-0.9c0.3-0.3,1-0.4,0.7-0.9
	c-0.3-0.6-1.5,0.2-1.8,0c-0.3-0.2-0.4-0.8,0-1.1c0.4-0.4,0.6-0.9,0.7-1c0.1-0.2,1-1.2,0.2-1c-0.9,0.2-0.9,0.6-1.9,0.6
	c-1,0-1,0.3-2-0.1c-0.9-0.5,0.1-0.5,0.7-0.9c0.6-0.4,1.2-1.2,1.6-1.2c0.3,0,1.2,0.7,1.5,0c0.3-0.7-0.6-1.1-0.8-1
	c-0.2,0.1-0.6-0.5-0.6-1.2c0-0.7,0.7-0.9,0.6-1.4c-0.1-0.5,0.1-1.3-0.6-1.3c-0.7,0-1.2,0.1-1.8,0.1c-0.6,0-1,0-1.3-0.3
	c-0.3-0.3,0.3-0.7,0.8-0.2c0.5,0.5,2-0.5,2-0.5s0.5-0.4,0.5-1c0-0.6-0.9-0.1-0.9-0.1s-1.4,0.1-1.8,0c-0.3-0.1,0.1-0.5,0.5-0.8
	c0.4-0.3,1-0.4,1.1-0.9c0.1-0.5,0.8-0.3,0.1-0.5c-0.7-0.2-0.9-0.2-0.7-0.8s1-0.6,0.3-0.6c-0.7,0,0.3,0.1-0.7,0c-1-0.1-1,0.8-1-0.1
	c0-0.9-1-0.7,0-0.9c1-0.1,1.7-0.2,1.7-0.2s0.2-1-0.5-0.8c-0.7,0.2-1.1,0.6-1.2,0c-0.1-0.6,0.2-0.3,0.5-0.7c0.3-0.5,0.8-1,0.4-1.2
	c-0.4-0.2-0.9-0.5-1-0.8c-0.1-0.3-0.4-1.3-0.9-0.5C52.5,143.1,52.5,143.1,52.5,143.1z"/>
<path id="XMLID_244_" class="st0" d="M138.5,152.1c-0.4-0.9-0.1-0.6-0.4-3.8s-1-0.1-1,0.7c0.1,0.9-0.3,2-0.3,2.4
	c0,0.4,0.5,1.4,0.1,1.5c-0.4,0.1-0.7-0.3-1.2-0.7c-0.5-0.4-0.8,0.2-0.8,0.7c0,0.5,0.5,0.9,0.5,1.5c0,0.6-0.1,1.3-0.1,2
	c0,0.7,0.9,1,0.9,1s0.3,0.2,0.4,0.5c0.1,0.3-0.8,0.3-1.3,0c-0.5-0.3-0.9-0.8-1.5-0.7c-0.7,0.1-0.7,0.9-0.7,0.9s-0.3,0.4,0,0.6
	c0.3,0.2,0.9,0.8,1.3,0.8c0.5,0-0.2,0.1-1.4-0.3c-1.3-0.4-0.5,1.2-0.5,1.2s0.9,0.4,0.7,1.1c-0.2,0.7-0.6,1,0,1.2
	c0.6,0.3-0.3,0.7-1,0.4c-0.7-0.3-1.4-0.3-1.1,0.1c0.3,0.4,0.8,0.2,0.8,1.1s0,1.1,0.3,1.4c0.3,0.3,0.4,0.5,0.3,1.1
	c-0.1,0.6,0.2,0.7,1.1,0.7c0.9,0,1.8-0.3,1.8,0c0,0.3,0.9,1,0.6,1.1c-0.3,0.1,0,0.2-1.4,0c-1.4-0.2-2.1,0-2.2,0.1
	c-0.1,0.1-0.3,0.1-0.9,0.7c-0.6,0.6-0.2,0.7-0.1,1.2c0.1,0.5-0.4,0.7-0.5,1c-0.1,0.3,0.5,0.2,0.8,0.9s-0.6,0.9-0.8,0.9
	c-0.2,0-0.4,0.8,0,1.1c0.4,0.3,0.9,1.2,0.9,1.2c0,0-0.7,0.1-0.5,0.8c0.2,0.7,0.2,0.6,1.3,1c1.1,0.5,1.9,0.1,2.2,0.5
	c0.3,0.4-0.1,0.5-0.5,0.5c-0.4,0-0.7-0.2-1.4,0c-0.7,0.2-1.4,0-1.4,0s-0.3-0.9-0.5,0.1c-0.1,1,0.5,0.2,0.7,1.1
	c0.2,0.9-0.7,1.1-1.1,0.7c-0.5-0.5-2-1.1-2-0.6s0.1,0.9,0.6,1.6c0.5,0.7,1.4,0.9,2.1,1c0.7,0.1,1.5,0.3,1.2,0.6
	c-0.3,0.3-0.8,0.4-1,0.5c-0.3,0.1-1,0.5-0.9,1.2c0.1,0.7-0.7,0.8-0.8,1c-0.1,0.2-0.6,1.2-0.2,1.6c0.4,0.5-0.1,1-0.5,1.2
	c-0.5,0.1-1.2,1.2-0.5,1.4c0.8,0.2,1.8,0.7,2.2,0.7c0.4,0,2-0.5,2.4-0.7c0.4-0.1,1.4-0.5,1.6-0.5c0.2,0,0.1,0.9-0.9,1.2
	c-1,0.3-2.5,0.3-3.3,0.5c-0.8,0.3-1.4,0.5-1,1c0.3,0.5,0.3,0.7,1,0.9c0.7,0.2,2.2,0.7,2.9,0c0.7-0.7,1.6-0.7,2.4-1.2
	c0.7-0.5,0.7-0.2,0.5,0.5c-0.1,0.7-0.8,0.2-1.3,1c-0.5,0.8-0.4,1.4-0.2,1.5c0.2,0.1,0.9,0.5,1.2,0c0.3-0.5,0.9-0.7,0.9-0.7l-0.1,5.2
	h1.8v-5.4c0,0,0.8,0.3,0.9,0.8c0.1,0.5,0.6,0.6,1.2,0.3s1.9-0.7,1.2-1.2c-0.7-0.5-1-1.4-1.5-1.5c-0.5-0.1-1.2-0.9-0.3-0.7
	c0.9,0.1,0.9,0.5,1.9,0.5c1.1,0,1.2,0.3,2.2,0.1c1-0.1,2.5-0.3,2.1-1c-0.4-0.7-1.1-0.9-1.4-1.5c-0.3-0.6,1.1-0.2,0.4-1.3
	c-0.7-1.1,0.3-1.2-0.7-1.1c-1,0.1-0.9-1.1-2.1-0.8c-1.2,0.3-1.8-0.1-1.4-0.7c0.4-0.5,0-0.7-0.5-0.7c-0.5,0-1.4-0.5-1.4-0.5
	s0.9-0.3,1.6-0.3c0.7,0,0.4,0.4,2.1,0.3c1.8-0.1,0.9-0.5,1.8-0.6c0.9-0.1,1.9,0,2.1-0.7c0.2-0.7-0.1-0.8-0.7-1.1
	c-0.5-0.3-1,0.1-1.9,0.3c-0.9,0.2-1.1,0.4-1.4-0.1c-0.3-0.5,0.2-0.3,0.6-1c0.5-0.7,1.4-0.9,1-1.4c-0.3-0.6-1.8-0.1-1.7-0.1
	s0.7-0.5,0.7-1c0-0.5-0.2-0.6-0.7-0.4c-0.5,0.2-0.6,0.3-1.5,0.5c-0.9,0.1,0.7-0.3,0.9-0.9c0.3-0.7,0.7-1,0.6-1.3
	c-0.2-0.3-0.1-0.7,0-1.2c0.1-0.5-0.6-0.4,0-0.9s0-1.1,0-0.9c0,0.3-1.1,0.6-1.3,0.6c-0.2,0-0.5-1.1,0.3-1.2c0.9,0,1.8-0.7,2.1-0.9
	c0.3-0.3,1-0.4,0.7-0.9c-0.3-0.6-1.5,0.2-1.8,0c-0.3-0.2-0.4-0.8,0-1.1c0.4-0.4,0.6-0.9,0.7-1c0.1-0.2,1-1.2,0.2-1
	c-0.9,0.2-0.9,0.6-1.9,0.6c-1,0-1,0.3-2-0.1c-0.9-0.5,0.1-0.5,0.7-0.9c0.6-0.4,1.2-1.2,1.6-1.2c0.3,0,1.2,0.7,1.5,0
	c0.3-0.7-0.6-1.1-0.8-1c-0.2,0.1-0.6-0.5-0.6-1.2c0-0.7,0.7-0.9,0.6-1.4c-0.1-0.5,0.1-1.3-0.6-1.3c-0.7,0-1.2,0.1-1.8,0.1
	s-1,0-1.3-0.3c-0.3-0.3,0.3-0.7,0.8-0.2c0.5,0.5,2-0.5,2-0.5s0.5-0.4,0.5-1c0-0.6-0.9-0.1-0.9-0.1s-1.4,0.1-1.8,0
	c-0.3-0.1,0.1-0.5,0.5-0.8c0.4-0.3,1-0.4,1.1-0.9c0.1-0.5,0.8-0.3,0.1-0.5c-0.7-0.2-0.9-0.2-0.7-0.8s1-0.6,0.3-0.6
	c-0.7,0,0.3,0.1-0.7,0c-1-0.1-1,0.8-1-0.1s-1-0.7,0-0.9c1-0.1,1.7-0.2,1.7-0.2s0.2-1-0.5-0.8c-0.7,0.2-1.1,0.6-1.2,0
	c-0.1-0.6,0.2-0.3,0.5-0.7c0.3-0.5,0.8-1,0.4-1.2c-0.4-0.2-0.9-0.5-1-0.8c-0.1-0.3-0.4-1.3-0.9-0.5
	C138.5,152.1,138.5,152.1,138.5,152.1z"/>
<path id="XMLID_243_" class="st0" d="M151.9,168.4c-0.3-0.6-0.1-0.4-0.3-2.6c-0.2-2.2-0.7-0.1-0.7,0.5c0,0.6-0.2,1.4-0.2,1.6
	s0.4,1,0.1,1c-0.3,0.1-0.5-0.2-0.8-0.5c-0.3-0.3-0.5,0.2-0.5,0.5c0,0.3,0.4,0.6,0.4,1c0,0.4,0,0.9,0,1.4c0,0.5,0.6,0.7,0.6,0.7
	s0.2,0.1,0.3,0.3c0.1,0.2-0.6,0.2-0.9,0c-0.3-0.2-0.6-0.5-1-0.5c-0.5,0.1-0.5,0.6-0.5,0.6s-0.2,0.3,0,0.4c0.2,0.1,0.6,0.5,0.9,0.5
	c0.3,0-0.1,0-1-0.2c-0.9-0.3-0.3,0.8-0.3,0.8s0.6,0.3,0.5,0.8c-0.1,0.5-0.4,0.7,0,0.9c0.4,0.2-0.2,0.5-0.7,0.3
	c-0.5-0.2-1-0.2-0.7,0.1c0.2,0.3,0.5,0.1,0.5,0.7c0,0.6,0,0.8,0.2,1c0.2,0.2,0.3,0.4,0.2,0.8c0,0.4,0.1,0.5,0.8,0.5
	c0.6,0,1.3-0.2,1.3,0s0.6,0.7,0.4,0.8c-0.2,0.1,0,0.1-1,0s-1.4,0-1.5,0.1c0,0.1-0.2,0.1-0.6,0.5c-0.4,0.4-0.1,0.5,0,0.8
	c0.1,0.3-0.2,0.5-0.3,0.7c-0.1,0.2,0.4,0.1,0.6,0.7c0.2,0.5-0.4,0.6-0.6,0.6s-0.3,0.5,0,0.8c0.3,0.2,0.6,0.8,0.6,0.9
	c0,0-0.5,0.1-0.3,0.6c0.1,0.5,0.1,0.4,0.9,0.7c0.8,0.3,1.3,0,1.5,0.3c0.2,0.3,0,0.3-0.3,0.3c-0.3,0-0.5-0.1-1,0c-0.5,0.1-1,0-1,0
	s-0.2-0.6-0.3,0.1c-0.1,0.7,0.3,0.2,0.5,0.8s-0.5,0.8-0.8,0.5c-0.3-0.3-1.4-0.8-1.4-0.4c0,0.4,0,0.6,0.4,1.1c0.4,0.5,1,0.6,1.5,0.7
	c0.5,0,1,0.2,0.9,0.4c-0.2,0.2-0.5,0.3-0.7,0.3c-0.2,0-0.7,0.4-0.6,0.9c0,0.5-0.5,0.5-0.5,0.7s-0.4,0.8-0.1,1.1
	c0.3,0.3,0,0.7-0.4,0.8c-0.3,0.1-0.9,0.8-0.3,1c0.5,0.1,1.2,0.5,1.5,0.5s1.4-0.4,1.7-0.5c0.3-0.1,1-0.4,1.1-0.4s0.1,0.6-0.6,0.8
	c-0.7,0.2-1.7,0.2-2.3,0.4c-0.5,0.2-1,0.4-0.7,0.7c0.2,0.4,0.2,0.5,0.7,0.6c0.5,0.1,1.5,0.5,2,0c0.5-0.5,1.1-0.5,1.6-0.8
	c0.5-0.3,0.5-0.1,0.4,0.4c-0.1,0.5-0.5,0.1-0.9,0.7c-0.4,0.6-0.3,1-0.1,1.1c0.1,0.1,0.6,0.3,0.9,0c0.2-0.3,0.6-0.5,0.6-0.5l-0.1,3.6
	h1.3v-3.7c0,0,0.5,0.2,0.6,0.5c0,0.3,0.4,0.4,0.8,0.2c0.4-0.2,1.3-0.5,0.9-0.9c-0.5-0.4-0.7-1-1-1c-0.3-0.1-0.8-0.6-0.2-0.5
	c0.6,0.1,0.6,0.3,1.3,0.4c0.7,0,0.8,0.2,1.5,0.1c0.7-0.1,1.7-0.2,1.5-0.7c-0.3-0.5-0.8-0.6-1-1c-0.2-0.4,0.7-0.2,0.3-0.9
	c-0.5-0.7,0.2-0.8-0.5-0.7s-0.6-0.7-1.5-0.5c-0.9,0.2-1.2-0.1-1-0.5c0.3-0.4,0-0.5-0.3-0.5c-0.3,0-1-0.3-1-0.3s0.6-0.2,1.1-0.2
	c0.5,0,0.3,0.3,1.5,0.2c1.2-0.1,0.7-0.3,1.3-0.4c0.6-0.1,1.3,0,1.4-0.5c0.1-0.5-0.1-0.6-0.5-0.8c-0.4-0.2-0.7,0-1.3,0.2
	c-0.6,0.1-0.7,0.3-0.9,0c-0.2-0.3,0.1-0.2,0.4-0.7c0.3-0.5,1-0.6,0.7-1c-0.2-0.4-1.2,0-1.2,0c0.1,0,0.5-0.4,0.5-0.7
	c0-0.4-0.1-0.4-0.5-0.3c-0.3,0.1-0.4,0.2-1,0.3c-0.6,0.1,0.5-0.2,0.6-0.6c0.2-0.5,0.5-0.7,0.4-0.9c-0.1-0.2-0.1-0.5,0-0.8
	c0.1-0.4-0.4-0.3,0-0.6c0.4-0.4,0-0.8,0-0.6c0,0.2-0.7,0.4-0.9,0.4s-0.4-0.8,0.2-0.8c0.6,0,1.3-0.5,1.5-0.6c0.2-0.2,0.7-0.3,0.5-0.7
	c-0.2-0.4-1.1,0.1-1.3,0c-0.2-0.1-0.3-0.5,0-0.8c0.3-0.3,0.4-0.6,0.5-0.7c0.1-0.1,0.7-0.8,0.1-0.7s-0.6,0.4-1.3,0.4
	c-0.7,0-0.7,0.2-1.4-0.1c-0.6-0.3,0-0.4,0.5-0.6c0.4-0.3,0.9-0.9,1.1-0.9c0.2,0,0.8,0.5,1,0c0.2-0.5-0.4-0.8-0.5-0.7
	c-0.1,0-0.4-0.4-0.4-0.9c0-0.5,0.5-0.6,0.4-1c-0.1-0.4,0.1-0.9-0.4-0.9c-0.5,0-0.9,0-1.3,0c-0.4,0-0.7,0-0.9-0.2
	c-0.2-0.2,0.2-0.5,0.5-0.1c0.4,0.3,1.4-0.3,1.4-0.3s0.3-0.3,0.3-0.7c0-0.4-0.6-0.1-0.6-0.1s-1,0.1-1.2,0c-0.2-0.1,0.1-0.3,0.4-0.5
	c0.3-0.2,0.7-0.3,0.8-0.6c0-0.3,0.5-0.2,0-0.3s-0.6-0.1-0.5-0.5c0.2-0.4,0.7-0.4,0.2-0.4s0.2,0-0.5,0c-0.7,0-0.7,0.5-0.7,0
	c0-0.6-0.7-0.5,0-0.6c0.7-0.1,1.2-0.1,1.2-0.1s0.1-0.7-0.4-0.5c-0.5,0.1-0.8,0.4-0.8,0c0-0.4,0.1-0.2,0.4-0.5
	c0.2-0.3,0.5-0.7,0.3-0.9c-0.3-0.1-0.6-0.4-0.7-0.5c-0.1-0.2-0.3-0.9-0.6-0.3C151.9,168.4,151.9,168.4,151.9,168.4z"/>
<path id="XMLID_242_" class="st0" d="M160.7,163.5c-0.2-0.5,0-0.4-0.2-2.2c-0.2-1.8-0.6-0.1-0.6,0.4c0,0.5-0.2,1.1-0.2,1.4
	c0,0.2,0.3,0.8,0.1,0.9c-0.2,0.1-0.4-0.2-0.7-0.4c-0.3-0.2-0.5,0.1-0.5,0.4s0.3,0.5,0.3,0.9c0,0.3,0,0.8,0,1.1
	c0,0.4,0.5,0.6,0.5,0.6s0.2,0.1,0.2,0.3c0.1,0.2-0.5,0.2-0.7,0c-0.3-0.2-0.5-0.5-0.9-0.4c-0.4,0.1-0.4,0.5-0.4,0.5s-0.2,0.2,0,0.3
	c0.2,0.1,0.5,0.5,0.8,0.5s-0.1,0-0.8-0.2c-0.7-0.2-0.3,0.7-0.3,0.7s0.5,0.2,0.4,0.6c-0.1,0.4-0.3,0.6,0,0.7c0.3,0.2-0.2,0.4-0.6,0.2
	c-0.4-0.2-0.8-0.2-0.6,0.1c0.2,0.2,0.5,0.1,0.5,0.6s0,0.6,0.2,0.8c0.2,0.2,0.2,0.3,0.2,0.6c0,0.3,0.1,0.4,0.6,0.4
	c0.5,0,1.1-0.2,1.1,0c0,0.2,0.5,0.6,0.3,0.6c-0.2,0.1,0,0.1-0.8,0c-0.8-0.1-1.2,0-1.3,0.1c0,0.1-0.2,0.1-0.5,0.4
	c-0.3,0.3-0.1,0.4,0,0.7c0.1,0.3-0.2,0.4-0.3,0.6s0.3,0.1,0.5,0.6c0.2,0.5-0.4,0.5-0.5,0.5c-0.1,0-0.2,0.5,0,0.6
	c0.2,0.2,0.5,0.7,0.5,0.7c0,0-0.4,0.1-0.3,0.5c0.1,0.4,0.1,0.3,0.8,0.6c0.6,0.3,1.1,0,1.3,0.3c0.2,0.2,0,0.3-0.3,0.3s-0.4-0.1-0.8,0
	c-0.4,0.1-0.8,0-0.8,0s-0.2-0.5-0.3,0.1c-0.1,0.6,0.3,0.1,0.4,0.6c0.1,0.5-0.4,0.6-0.6,0.4c-0.3-0.3-1.1-0.6-1.1-0.3s0,0.5,0.3,0.9
	c0.3,0.4,0.8,0.5,1.2,0.6c0.4,0,0.9,0.2,0.7,0.3c-0.2,0.2-0.5,0.2-0.6,0.3c-0.2,0-0.6,0.3-0.5,0.7c0,0.4-0.4,0.5-0.5,0.6
	c-0.1,0.1-0.3,0.7-0.1,1c0.2,0.3,0,0.6-0.3,0.7c-0.3,0.1-0.7,0.7-0.3,0.8c0.5,0.1,1,0.4,1.3,0.4c0.2,0,1.1-0.3,1.4-0.4
	c0.2-0.1,0.8-0.3,0.9-0.3c0.1,0,0.1,0.5-0.5,0.7c-0.6,0.2-1.4,0.2-1.9,0.3c-0.5,0.2-0.8,0.3-0.6,0.6c0.2,0.3,0.2,0.4,0.6,0.5
	c0.4,0.1,1.3,0.4,1.7,0c0.4-0.4,1-0.4,1.4-0.7c0.4-0.3,0.4-0.1,0.3,0.3c-0.1,0.4-0.5,0.1-0.8,0.6c-0.3,0.5-0.2,0.8-0.1,0.9
	c0.1,0.1,0.5,0.3,0.7,0c0.2-0.3,0.5-0.4,0.5-0.4l-0.1,3h1.1v-3.1c0,0,0.5,0.2,0.5,0.5c0,0.3,0.3,0.3,0.7,0.2
	c0.3-0.2,1.1-0.4,0.7-0.7c-0.4-0.3-0.6-0.8-0.9-0.9c-0.3-0.1-0.7-0.5-0.2-0.4c0.5,0.1,0.5,0.3,1.1,0.3c0.6,0,0.7,0.2,1.3,0.1
	c0.6-0.1,1.4-0.2,1.2-0.6c-0.2-0.4-0.6-0.5-0.8-0.9c-0.2-0.3,0.6-0.1,0.2-0.8c-0.4-0.6,0.2-0.7-0.4-0.6c-0.6,0.1-0.5-0.6-1.2-0.4
	c-0.7,0.2-1-0.1-0.8-0.4c0.2-0.3,0-0.4-0.3-0.4s-0.8-0.3-0.8-0.3s0.5-0.2,0.9-0.2c0.4,0,0.2,0.2,1.2,0.2c1-0.1,0.5-0.3,1.1-0.3
	c0.5-0.1,1.1,0,1.2-0.4c0.1-0.4-0.1-0.5-0.4-0.7c-0.3-0.2-0.6,0-1.1,0.2c-0.5,0.1-0.6,0.2-0.8,0c-0.2-0.3,0.1-0.2,0.4-0.6
	c0.3-0.4,0.8-0.5,0.6-0.8c-0.2-0.3-1,0-1,0s0.4-0.3,0.4-0.6c0-0.3-0.1-0.3-0.4-0.2c-0.3,0.1-0.3,0.2-0.9,0.3
	c-0.5,0.1,0.4-0.2,0.5-0.5s0.4-0.6,0.3-0.8c-0.1-0.2-0.1-0.4,0-0.7c0.1-0.3-0.4-0.2,0-0.5c0.4-0.3,0-0.6,0-0.5
	c0,0.2-0.6,0.3-0.7,0.3c-0.1,0-0.3-0.7,0.2-0.7c0.5,0,1.1-0.4,1.2-0.5c0.2-0.2,0.6-0.2,0.4-0.6c-0.2-0.3-0.9,0.1-1,0
	c-0.2-0.1-0.2-0.4,0-0.7c0.2-0.2,0.3-0.5,0.4-0.6c0.1-0.1,0.6-0.7,0.1-0.6s-0.5,0.3-1.1,0.3c-0.6,0-0.6,0.2-1.1-0.1
	c-0.5-0.3,0-0.3,0.4-0.5c0.3-0.2,0.7-0.7,0.9-0.7c0.2,0,0.7,0.4,0.9,0c0.2-0.4-0.4-0.6-0.4-0.6c-0.1,0-0.4-0.3-0.4-0.7
	c0-0.4,0.4-0.5,0.4-0.8c-0.1-0.3,0.1-0.8-0.4-0.8c-0.4,0-0.7,0-1.1,0c-0.3,0-0.6,0-0.8-0.2c-0.2-0.2,0.2-0.4,0.5-0.1
	s1.1-0.3,1.1-0.3s0.3-0.2,0.3-0.6s-0.5-0.1-0.5-0.1s-0.8,0.1-1,0c-0.2-0.1,0.1-0.3,0.3-0.5c0.2-0.2,0.6-0.2,0.6-0.5
	c0-0.3,0.5-0.2,0-0.3c-0.4-0.1-0.5-0.1-0.4-0.5c0.2-0.3,0.6-0.3,0.2-0.3c-0.4,0,0.2,0-0.4,0c-0.6,0-0.6,0.5-0.6,0
	c0-0.5-0.6-0.4,0-0.5c0.6-0.1,1-0.1,1-0.1s0.1-0.6-0.3-0.5c-0.4,0.1-0.6,0.3-0.7,0c0-0.3,0.1-0.2,0.3-0.4c0.2-0.3,0.5-0.6,0.2-0.7
	c-0.2-0.1-0.5-0.3-0.6-0.5c-0.1-0.2-0.2-0.8-0.5-0.3S160.7,163.5,160.7,163.5z"/>
<path id="XMLID_241_" class="st0" d="M170.9,171.7c-0.2-0.4,0-0.3-0.2-1.7c-0.1-1.4-0.5-0.1-0.4,0.3c0,0.4-0.1,0.9-0.1,1.1
	c0,0.2,0.2,0.6,0.1,0.7c-0.2,0.1-0.3-0.1-0.5-0.3c-0.2-0.2-0.4,0.1-0.4,0.3c0,0.2,0.2,0.4,0.2,0.7s0,0.6,0,0.9
	c0,0.3,0.4,0.5,0.4,0.5s0.1,0.1,0.2,0.2c0,0.1-0.4,0.1-0.6,0c-0.2-0.1-0.4-0.4-0.7-0.3c-0.3,0.1-0.3,0.4-0.3,0.4s-0.1,0.2,0,0.3
	c0.1,0.1,0.4,0.4,0.6,0.4s-0.1,0-0.6-0.1c-0.6-0.2-0.2,0.5-0.2,0.5s0.4,0.2,0.3,0.5c-0.1,0.3-0.3,0.4,0,0.6s-0.1,0.3-0.4,0.2
	c-0.3-0.1-0.6-0.1-0.5,0.1c0.1,0.2,0.4,0.1,0.4,0.5c0,0.4,0,0.5,0.1,0.6c0.1,0.1,0.2,0.2,0.1,0.5s0.1,0.3,0.5,0.3
	c0.4,0,0.8-0.1,0.8,0c0,0.1,0.4,0.4,0.3,0.5c-0.1,0.1,0,0.1-0.6,0c-0.6-0.1-0.9,0-1,0.1c0,0.1-0.1,0.1-0.4,0.3
	c-0.3,0.3-0.1,0.3,0,0.5c0.1,0.2-0.2,0.3-0.2,0.5c-0.1,0.1,0.2,0.1,0.4,0.4c0.1,0.4-0.3,0.4-0.4,0.4c-0.1,0-0.2,0.4,0,0.5
	c0.2,0.1,0.4,0.5,0.4,0.6c0,0-0.3,0.1-0.2,0.4c0.1,0.3,0.1,0.3,0.6,0.5s0.9,0,1,0.2c0.1,0.2,0,0.2-0.2,0.2s-0.3-0.1-0.6,0
	c-0.3,0.1-0.6,0-0.6,0s-0.1-0.4-0.2,0c-0.1,0.4,0.2,0.1,0.3,0.5c0.1,0.4-0.3,0.5-0.5,0.3c-0.2-0.2-0.9-0.5-0.9-0.3s0,0.4,0.3,0.7
	c0.2,0.3,0.6,0.4,0.9,0.4c0.3,0,0.7,0.1,0.6,0.3c-0.1,0.1-0.4,0.2-0.5,0.2c-0.1,0-0.4,0.2-0.4,0.6c0,0.3-0.3,0.4-0.4,0.4
	c-0.1,0.1-0.3,0.5-0.1,0.7c0.2,0.2,0,0.5-0.2,0.5c-0.2,0.1-0.6,0.5-0.2,0.6c0.4,0.1,0.8,0.3,1,0.3s0.9-0.2,1.1-0.3
	c0.2-0.1,0.6-0.2,0.7-0.2c0.1,0,0.1,0.4-0.4,0.5c-0.4,0.1-1.1,0.1-1.5,0.2c-0.4,0.1-0.6,0.2-0.5,0.5c0.1,0.2,0.1,0.3,0.5,0.4
	c0.3,0.1,1,0.3,1.3,0s0.7-0.3,1.1-0.5c0.3-0.2,0.3-0.1,0.2,0.2c-0.1,0.3-0.4,0.1-0.6,0.5c-0.2,0.4-0.2,0.6-0.1,0.7
	c0.1,0.1,0.4,0.2,0.6,0c0.1-0.2,0.4-0.3,0.4-0.3l-0.1,2.3h0.8v-2.4c0,0,0.4,0.1,0.4,0.4c0,0.2,0.3,0.3,0.5,0.1
	c0.3-0.1,0.9-0.3,0.6-0.6c-0.3-0.2-0.5-0.6-0.7-0.7c-0.2-0.1-0.5-0.4-0.1-0.3c0.4,0.1,0.4,0.2,0.9,0.2c0.5,0,0.5,0.1,1,0.1
	c0.4-0.1,1.1-0.1,0.9-0.4c-0.2-0.3-0.5-0.4-0.6-0.7c-0.1-0.3,0.5-0.1,0.2-0.6c-0.3-0.5,0.2-0.5-0.3-0.5c-0.5,0-0.4-0.5-1-0.3
	c-0.6,0.1-0.8-0.1-0.6-0.3c0.2-0.2,0-0.3-0.2-0.3s-0.6-0.2-0.6-0.2s0.4-0.1,0.7-0.1c0.3,0,0.2,0.2,1,0.1c0.8,0,0.4-0.2,0.8-0.3
	c0.4-0.1,0.8,0,0.9-0.3c0.1-0.3-0.1-0.4-0.3-0.5c-0.2-0.1-0.5,0-0.9,0.1c-0.4,0.1-0.5,0.2-0.6,0c-0.1-0.2,0.1-0.1,0.3-0.4
	c0.2-0.3,0.6-0.4,0.5-0.6c-0.1-0.3-0.8,0-0.8,0s0.3-0.2,0.3-0.5c0-0.2-0.1-0.3-0.3-0.2c-0.2,0.1-0.2,0.1-0.7,0.2
	c-0.4,0.1,0.3-0.1,0.4-0.4c0.1-0.3,0.3-0.5,0.2-0.6c-0.1-0.1,0-0.3,0-0.5c0-0.2-0.3-0.2,0-0.4c0.3-0.2,0-0.5,0-0.4s-0.5,0.3-0.6,0.3
	c-0.1,0-0.2-0.5,0.1-0.5c0.4,0,0.8-0.3,0.9-0.4c0.1-0.1,0.4-0.2,0.3-0.4s-0.7,0.1-0.8,0c-0.1-0.1-0.2-0.3,0-0.5
	c0.2-0.2,0.3-0.4,0.3-0.5c0.1-0.1,0.5-0.5,0.1-0.4c-0.4,0.1-0.4,0.3-0.9,0.3s-0.5,0.1-0.9-0.1c-0.4-0.2,0-0.2,0.3-0.4
	c0.3-0.2,0.6-0.6,0.7-0.6s0.5,0.3,0.7,0c0.1-0.3-0.3-0.5-0.3-0.5c-0.1,0-0.3-0.2-0.3-0.6c0-0.3,0.3-0.4,0.3-0.6c0-0.2,0-0.6-0.3-0.6
	s-0.6,0-0.8,0s-0.5,0-0.6-0.1c-0.1-0.1,0.1-0.3,0.4-0.1c0.2,0.2,0.9-0.2,0.9-0.2s0.2-0.2,0.2-0.4s-0.4-0.1-0.4-0.1s-0.6,0.1-0.8,0
	c-0.1-0.1,0.1-0.2,0.2-0.4c0.2-0.1,0.5-0.2,0.5-0.4c0-0.2,0.4-0.1,0-0.2s-0.4-0.1-0.3-0.4c0.1-0.3,0.4-0.3,0.1-0.3s0.1,0-0.3,0
	c-0.4,0-0.4,0.4-0.4,0c0-0.4-0.5-0.3,0-0.4c0.5-0.1,0.8-0.1,0.8-0.1s0.1-0.4-0.2-0.4c-0.3,0.1-0.5,0.3-0.5,0c0-0.3,0.1-0.1,0.2-0.3
	c0.1-0.2,0.4-0.5,0.2-0.6c-0.2-0.1-0.4-0.2-0.4-0.4c-0.1-0.1-0.2-0.6-0.4-0.2C170.9,171.7,170.9,171.7,170.9,171.7z"/>
<path id="XMLID_240_" class="st0" d="M177.9,168c-0.2-0.5,0-0.3-0.2-2.1c-0.2-1.7-0.6-0.1-0.5,0.4c0,0.5-0.1,1.1-0.1,1.3
	c0,0.2,0.3,0.8,0.1,0.8c-0.2,0.1-0.4-0.2-0.6-0.4c-0.3-0.2-0.4,0.1-0.4,0.4c0,0.3,0.3,0.5,0.3,0.8c0,0.3,0,0.7,0,1.1
	c0,0.4,0.5,0.6,0.5,0.6s0.2,0.1,0.2,0.3c0.1,0.1-0.4,0.1-0.7,0c-0.3-0.1-0.5-0.4-0.8-0.4c-0.4,0.1-0.4,0.5-0.4,0.5s-0.1,0.2,0,0.3
	c0.1,0.1,0.5,0.4,0.7,0.4c0.3,0-0.1,0-0.8-0.2s-0.3,0.6-0.3,0.6s0.5,0.2,0.4,0.6c-0.1,0.4-0.3,0.5,0,0.7c0.3,0.1-0.2,0.4-0.5,0.2
	c-0.4-0.2-0.8-0.2-0.6,0.1c0.2,0.2,0.4,0.1,0.4,0.6s0,0.6,0.2,0.8s0.2,0.3,0.2,0.6c0,0.3,0.1,0.4,0.6,0.4c0.5,0,1-0.2,1,0
	c0,0.2,0.5,0.5,0.3,0.6c-0.2,0.1,0,0.1-0.8,0c-0.8-0.1-1.1,0-1.2,0.1c0,0.1-0.2,0.1-0.5,0.4c-0.3,0.3-0.1,0.4,0,0.6
	c0.1,0.3-0.2,0.4-0.3,0.6c-0.1,0.2,0.3,0.1,0.4,0.5c0.1,0.4-0.4,0.5-0.4,0.5c-0.1,0-0.2,0.4,0,0.6c0.2,0.2,0.5,0.7,0.5,0.7
	c0,0-0.4,0.1-0.3,0.4c0.1,0.4,0.1,0.3,0.7,0.6c0.6,0.3,1,0,1.2,0.3c0.2,0.2,0,0.3-0.3,0.3c-0.2,0-0.4-0.1-0.8,0
	c-0.4,0.1-0.8,0-0.8,0s-0.2-0.5-0.3,0c-0.1,0.5,0.3,0.1,0.4,0.6c0.1,0.5-0.4,0.6-0.6,0.4c-0.3-0.3-1.1-0.6-1.1-0.3
	c0,0.3,0,0.5,0.3,0.9c0.3,0.4,0.8,0.5,1.2,0.5c0.4,0,0.8,0.2,0.7,0.3c-0.1,0.1-0.4,0.2-0.6,0.3c-0.1,0-0.5,0.3-0.5,0.7
	c0,0.4-0.4,0.4-0.4,0.5c-0.1,0.1-0.3,0.6-0.1,0.9c0.2,0.3,0,0.6-0.3,0.6c-0.3,0.1-0.7,0.6-0.3,0.8c0.4,0.1,1,0.4,1.2,0.4
	c0.2,0,1.1-0.3,1.3-0.4c0.2-0.1,0.8-0.3,0.9-0.3s0.1,0.5-0.5,0.6c-0.5,0.1-1.4,0.1-1.8,0.3c-0.4,0.1-0.8,0.3-0.6,0.6
	c0.2,0.3,0.2,0.4,0.6,0.5c0.4,0.1,1.2,0.4,1.6,0c0.4-0.4,0.9-0.4,1.3-0.6c0.4-0.3,0.4-0.1,0.3,0.3c-0.1,0.4-0.4,0.1-0.7,0.6
	c-0.3,0.4-0.2,0.8-0.1,0.8c0.1,0.1,0.5,0.3,0.7,0c0.2-0.3,0.5-0.4,0.5-0.4l-0.1,2.8h1v-3c0,0,0.4,0.2,0.5,0.4c0,0.3,0.3,0.3,0.6,0.2
	c0.3-0.1,1-0.4,0.7-0.7c-0.4-0.3-0.6-0.8-0.8-0.8c-0.3-0.1-0.6-0.5-0.1-0.4c0.5,0.1,0.5,0.3,1.1,0.3c0.6,0,0.7,0.1,1.2,0.1
	c0.5-0.1,1.4-0.2,1.2-0.5c-0.2-0.4-0.6-0.5-0.8-0.8c-0.1-0.3,0.6-0.1,0.2-0.7c-0.4-0.6,0.2-0.6-0.4-0.6c-0.6,0.1-0.5-0.6-1.2-0.4
	c-0.7,0.2-1-0.1-0.8-0.4c0.2-0.3,0-0.4-0.3-0.4c-0.3,0-0.8-0.3-0.8-0.3s0.5-0.1,0.9-0.1c0.4,0,0.2,0.2,1.2,0.2c1-0.1,0.5-0.2,1-0.3
	c0.5-0.1,1,0,1.1-0.4c0.1-0.4-0.1-0.5-0.4-0.6c-0.3-0.2-0.6,0-1,0.1c-0.5,0.1-0.6,0.2-0.7,0c-0.2-0.3,0.1-0.2,0.3-0.5
	c0.3-0.4,0.8-0.5,0.6-0.8c-0.2-0.3-1,0-0.9,0c0.1,0,0.4-0.3,0.4-0.6c0-0.3-0.1-0.3-0.4-0.2c-0.3,0.1-0.3,0.2-0.8,0.3
	c-0.5,0.1,0.4-0.1,0.5-0.5c0.1-0.4,0.4-0.6,0.3-0.7c-0.1-0.1-0.1-0.4,0-0.7c0.1-0.3-0.3-0.2,0-0.5c0.3-0.3,0-0.6,0-0.5
	c0,0.1-0.6,0.3-0.7,0.3s-0.3-0.6,0.2-0.6c0.5,0,1-0.4,1.2-0.5c0.1-0.1,0.5-0.2,0.4-0.5c-0.2-0.3-0.8,0.1-1,0c-0.2-0.1-0.2-0.4,0-0.6
	c0.2-0.2,0.3-0.5,0.4-0.6c0.1-0.1,0.6-0.6,0.1-0.5c-0.5,0.1-0.5,0.3-1,0.3c-0.5,0-0.6,0.2-1.1-0.1c-0.5-0.3,0-0.3,0.4-0.5
	c0.3-0.2,0.7-0.7,0.9-0.7c0.2,0,0.6,0.4,0.8,0c0.2-0.4-0.3-0.6-0.4-0.6c-0.1,0-0.3-0.3-0.3-0.7c0-0.4,0.4-0.5,0.3-0.8
	c-0.1-0.3,0.1-0.7-0.3-0.7c-0.4,0-0.7,0-1,0c-0.3,0-0.6,0-0.7-0.1c-0.1-0.1,0.1-0.4,0.4-0.1c0.3,0.3,1.1-0.3,1.1-0.3
	s0.3-0.2,0.3-0.5c0-0.3-0.5-0.1-0.5-0.1s-0.8,0.1-1,0c-0.2-0.1,0.1-0.3,0.3-0.4c0.2-0.2,0.6-0.2,0.6-0.5c0-0.3,0.4-0.1,0-0.3
	c-0.4-0.1-0.5-0.1-0.4-0.4c0.1-0.3,0.5-0.3,0.1-0.3c-0.4,0,0.1,0-0.4,0c-0.5,0-0.5,0.4-0.5,0c0-0.5-0.6-0.4,0-0.5
	c0.6-0.1,0.9-0.1,0.9-0.1s0.1-0.5-0.3-0.4c-0.4,0.1-0.6,0.3-0.6,0c0-0.3,0.1-0.1,0.3-0.4c0.2-0.3,0.4-0.6,0.2-0.7
	c-0.2-0.1-0.5-0.3-0.5-0.4c-0.1-0.1-0.2-0.7-0.5-0.3C177.9,168,177.9,168,177.9,168z"/>
<path id="XMLID_239_" class="st0" d="M188.3,175.2c-0.2-0.4,0-0.3-0.2-1.7c-0.1-1.4-0.5-0.1-0.4,0.3c0,0.4-0.1,0.9-0.1,1.1
	s0.2,0.6,0.1,0.7c-0.2,0.1-0.3-0.1-0.5-0.3c-0.2-0.2-0.4,0.1-0.4,0.3c0,0.2,0.2,0.4,0.2,0.7s0,0.6,0,0.9c0,0.3,0.4,0.5,0.4,0.5
	s0.1,0.1,0.2,0.2c0,0.1-0.4,0.1-0.6,0c-0.2-0.1-0.4-0.4-0.7-0.3c-0.3,0.1-0.3,0.4-0.3,0.4s-0.1,0.2,0,0.3c0.1,0.1,0.4,0.4,0.6,0.4
	c0.2,0-0.1,0-0.6-0.1c-0.6-0.2-0.2,0.5-0.2,0.5s0.4,0.2,0.3,0.5c-0.1,0.3-0.3,0.4,0,0.6c0.3,0.1-0.1,0.3-0.4,0.2
	c-0.3-0.1-0.6-0.1-0.5,0.1c0.1,0.2,0.4,0.1,0.4,0.5c0,0.4,0,0.5,0.1,0.6c0.1,0.1,0.2,0.2,0.1,0.5c0,0.3,0.1,0.3,0.5,0.3
	c0.4,0,0.8-0.1,0.8,0c0,0.1,0.4,0.4,0.3,0.5c-0.1,0.1,0,0.1-0.6,0c-0.6-0.1-0.9,0-1,0.1c0,0.1-0.1,0.1-0.4,0.3s-0.1,0.3,0,0.5
	c0.1,0.2-0.2,0.3-0.2,0.5c-0.1,0.1,0.2,0.1,0.4,0.4c0.1,0.4-0.3,0.4-0.4,0.4c-0.1,0-0.2,0.4,0,0.5c0.2,0.1,0.4,0.5,0.4,0.6
	c0,0-0.3,0.1-0.2,0.4c0.1,0.3,0.1,0.3,0.6,0.5c0.5,0.2,0.9,0,1,0.2c0.1,0.2,0,0.2-0.2,0.2c-0.2,0-0.3-0.1-0.6,0
	c-0.3,0.1-0.6,0-0.6,0s-0.1-0.4-0.2,0c-0.1,0.4,0.2,0.1,0.3,0.5c0.1,0.4-0.3,0.5-0.5,0.3c-0.2-0.2-0.9-0.5-0.9-0.3
	c0,0.2,0,0.4,0.3,0.7c0.2,0.3,0.6,0.4,0.9,0.4c0.3,0,0.7,0.1,0.6,0.3c-0.1,0.1-0.4,0.2-0.5,0.2c-0.1,0-0.4,0.2-0.4,0.6
	c0,0.3-0.3,0.4-0.4,0.4c-0.1,0.1-0.3,0.5-0.1,0.7c0.2,0.2,0,0.5-0.2,0.5c-0.2,0.1-0.6,0.5-0.2,0.6c0.4,0.1,0.8,0.3,1,0.3
	c0.2,0,0.9-0.2,1.1-0.3c0.2-0.1,0.6-0.2,0.7-0.2c0.1,0,0.1,0.4-0.4,0.5c-0.4,0.1-1.1,0.1-1.5,0.2c-0.4,0.1-0.6,0.2-0.5,0.5
	c0.1,0.2,0.1,0.3,0.5,0.4c0.3,0.1,1,0.3,1.3,0c0.3-0.3,0.7-0.3,1.1-0.5s0.3-0.1,0.2,0.2s-0.4,0.1-0.6,0.5c-0.2,0.4-0.2,0.6-0.1,0.7
	c0.1,0.1,0.4,0.2,0.6,0c0.1-0.2,0.4-0.3,0.4-0.3l-0.1,2.3h0.8V194c0,0,0.4,0.1,0.4,0.4c0,0.2,0.3,0.3,0.5,0.1
	c0.3-0.1,0.9-0.3,0.6-0.6c-0.3-0.2-0.5-0.6-0.7-0.7c-0.2-0.1-0.5-0.4-0.1-0.3c0.4,0.1,0.4,0.2,0.9,0.2c0.5,0,0.5,0.1,1,0.1
	c0.4-0.1,1.1-0.1,0.9-0.4c-0.2-0.3-0.5-0.4-0.6-0.7c-0.1-0.3,0.5-0.1,0.2-0.6c-0.3-0.5,0.2-0.5-0.3-0.5c-0.5,0-0.4-0.5-1-0.3
	c-0.6,0.1-0.8-0.1-0.6-0.3c0.2-0.2,0-0.3-0.2-0.3s-0.6-0.2-0.6-0.2s0.4-0.1,0.7-0.1c0.3,0,0.2,0.2,1,0.1c0.8,0,0.4-0.2,0.8-0.3
	c0.4-0.1,0.8,0,0.9-0.3c0.1-0.3-0.1-0.4-0.3-0.5c-0.2-0.1-0.5,0-0.9,0.1c-0.4,0.1-0.5,0.2-0.6,0c-0.1-0.2,0.1-0.1,0.3-0.4
	c0.2-0.3,0.6-0.4,0.5-0.6c-0.1-0.3-0.8,0-0.8,0s0.3-0.2,0.3-0.5c0-0.2-0.1-0.3-0.3-0.2c-0.2,0.1-0.2,0.1-0.7,0.2
	c-0.4,0.1,0.3-0.1,0.4-0.4c0.1-0.3,0.3-0.5,0.2-0.6c-0.1-0.1,0-0.3,0-0.5s-0.3-0.2,0-0.4c0.3-0.2,0-0.5,0-0.4c0,0.1-0.5,0.3-0.6,0.3
	c-0.1,0-0.2-0.5,0.1-0.5c0.4,0,0.8-0.3,0.9-0.4c0.1-0.1,0.4-0.2,0.3-0.4c-0.1-0.3-0.7,0.1-0.8,0c-0.1-0.1-0.2-0.3,0-0.5
	c0.2-0.2,0.3-0.4,0.3-0.5c0.1-0.1,0.5-0.5,0.1-0.4c-0.4,0.1-0.4,0.3-0.9,0.3s-0.5,0.1-0.9-0.1c-0.4-0.2,0-0.2,0.3-0.4
	c0.3-0.2,0.6-0.6,0.7-0.6c0.1,0,0.5,0.3,0.7,0s-0.3-0.5-0.3-0.5c-0.1,0-0.3-0.2-0.3-0.6c0-0.3,0.3-0.4,0.3-0.6c0-0.2,0-0.6-0.3-0.6
	c-0.3,0-0.6,0-0.8,0c-0.3,0-0.5,0-0.6-0.1c-0.1-0.1,0.1-0.3,0.4-0.1c0.2,0.2,0.9-0.2,0.9-0.2s0.2-0.2,0.2-0.4s-0.4-0.1-0.4-0.1
	s-0.6,0.1-0.8,0c-0.1-0.1,0.1-0.2,0.2-0.4c0.2-0.1,0.5-0.2,0.5-0.4c0-0.2,0.4-0.1,0-0.2c-0.3-0.1-0.4-0.1-0.3-0.4
	c0.1-0.3,0.4-0.3,0.1-0.3s0.1,0-0.3,0c-0.4,0-0.4,0.4-0.4,0c0-0.4-0.5-0.3,0-0.4c0.5-0.1,0.8-0.1,0.8-0.1s0.1-0.4-0.2-0.4
	s-0.5,0.3-0.5,0c0-0.3,0.1-0.1,0.2-0.3c0.1-0.2,0.4-0.5,0.2-0.6s-0.4-0.2-0.4-0.4c-0.1-0.1-0.2-0.6-0.4-0.2
	C188.3,175.2,188.3,175.2,188.3,175.2z"/>
<path id="XMLID_238_" class="st0" d="M200.5,178.7c-0.2-0.4,0-0.3-0.2-1.7c-0.1-1.4-0.5-0.1-0.4,0.3c0,0.4-0.1,0.9-0.1,1.1
	c0,0.2,0.2,0.6,0.1,0.7c-0.2,0.1-0.3-0.1-0.5-0.3c-0.2-0.2-0.4,0.1-0.4,0.3c0,0.2,0.2,0.4,0.2,0.7s0,0.6,0,0.9s0.4,0.5,0.4,0.5
	s0.1,0.1,0.2,0.2c0,0.1-0.4,0.1-0.6,0c-0.2-0.1-0.4-0.4-0.7-0.3c-0.3,0.1-0.3,0.4-0.3,0.4s-0.1,0.2,0,0.3c0.1,0.1,0.4,0.4,0.6,0.4
	c0.2,0-0.1,0-0.6-0.1c-0.6-0.2-0.2,0.5-0.2,0.5s0.4,0.2,0.3,0.5s-0.3,0.4,0,0.6c0.3,0.1-0.1,0.3-0.4,0.2c-0.3-0.1-0.6-0.1-0.5,0.1
	c0.1,0.2,0.4,0.1,0.4,0.5c0,0.4,0,0.5,0.1,0.6c0.1,0.1,0.2,0.2,0.1,0.5c0,0.3,0.1,0.3,0.5,0.3c0.4,0,0.8-0.1,0.8,0
	c0,0.1,0.4,0.4,0.3,0.5c-0.1,0.1,0,0.1-0.6,0c-0.6-0.1-0.9,0-1,0.1c0,0.1-0.1,0.1-0.4,0.3c-0.3,0.3-0.1,0.3,0,0.5
	c0.1,0.2-0.2,0.3-0.2,0.5c-0.1,0.1,0.2,0.1,0.4,0.4c0.1,0.4-0.3,0.4-0.4,0.4c-0.1,0-0.2,0.4,0,0.5c0.2,0.1,0.4,0.5,0.4,0.6
	c0,0-0.3,0.1-0.2,0.4s0.1,0.3,0.6,0.5c0.5,0.2,0.9,0,1,0.2c0.1,0.2,0,0.2-0.2,0.2s-0.3-0.1-0.6,0c-0.3,0.1-0.6,0-0.6,0
	s-0.1-0.4-0.2,0c-0.1,0.4,0.2,0.1,0.3,0.5c0.1,0.4-0.3,0.5-0.5,0.3c-0.2-0.2-0.9-0.5-0.9-0.3c0,0.2,0,0.4,0.3,0.7
	c0.2,0.3,0.6,0.4,0.9,0.4c0.3,0,0.7,0.1,0.6,0.3c-0.1,0.1-0.4,0.2-0.5,0.2c-0.1,0-0.4,0.2-0.4,0.6c0,0.3-0.3,0.4-0.4,0.4
	c-0.1,0.1-0.3,0.5-0.1,0.7c0.2,0.2,0,0.5-0.2,0.5s-0.6,0.5-0.2,0.6c0.4,0.1,0.8,0.3,1,0.3s0.9-0.2,1.1-0.3c0.2-0.1,0.6-0.2,0.7-0.2
	c0.1,0,0.1,0.4-0.4,0.5c-0.4,0.1-1.1,0.1-1.5,0.2s-0.6,0.2-0.5,0.5c0.1,0.2,0.1,0.3,0.5,0.4c0.3,0.1,1,0.3,1.3,0
	c0.3-0.3,0.7-0.3,1.1-0.5c0.3-0.2,0.3-0.1,0.2,0.2c-0.1,0.3-0.4,0.1-0.6,0.5c-0.2,0.4-0.2,0.6-0.1,0.7c0.1,0.1,0.4,0.2,0.6,0
	c0.1-0.2,0.4-0.3,0.4-0.3L200,200h0.8v-2.4c0,0,0.4,0.1,0.4,0.4c0,0.2,0.3,0.3,0.5,0.1c0.3-0.1,0.9-0.3,0.6-0.6
	c-0.3-0.2-0.5-0.6-0.7-0.7c-0.2-0.1-0.5-0.4-0.1-0.3c0.4,0.1,0.4,0.2,0.9,0.2c0.5,0,0.5,0.1,1,0.1c0.4-0.1,1.1-0.1,0.9-0.4
	c-0.2-0.3-0.5-0.4-0.6-0.7s0.5-0.1,0.2-0.6c-0.3-0.5,0.2-0.5-0.3-0.5c-0.5,0-0.4-0.5-1-0.3c-0.6,0.1-0.8-0.1-0.6-0.3
	c0.2-0.2,0-0.3-0.2-0.3s-0.6-0.2-0.6-0.2s0.4-0.1,0.7-0.1c0.3,0,0.2,0.2,1,0.1c0.8,0,0.4-0.2,0.8-0.3c0.4-0.1,0.8,0,0.9-0.3
	c0.1-0.3-0.1-0.4-0.3-0.5c-0.2-0.1-0.5,0-0.9,0.1c-0.4,0.1-0.5,0.2-0.6,0c-0.1-0.2,0.1-0.1,0.3-0.4c0.2-0.3,0.6-0.4,0.5-0.6
	c-0.1-0.3-0.8,0-0.8,0s0.3-0.2,0.3-0.5c0-0.2-0.1-0.3-0.3-0.2c-0.2,0.1-0.2,0.1-0.7,0.2c-0.4,0.1,0.3-0.1,0.4-0.4
	c0.1-0.3,0.3-0.5,0.2-0.6c-0.1-0.1,0-0.3,0-0.5c0-0.2-0.3-0.2,0-0.4c0.3-0.2,0-0.5,0-0.4c0,0.1-0.5,0.3-0.6,0.3
	c-0.1,0-0.2-0.5,0.1-0.5c0.4,0,0.8-0.3,0.9-0.4c0.1-0.1,0.4-0.2,0.3-0.4c-0.1-0.3-0.7,0.1-0.8,0c-0.1-0.1-0.2-0.3,0-0.5
	c0.2-0.2,0.3-0.4,0.3-0.5c0.1-0.1,0.5-0.5,0.1-0.4c-0.4,0.1-0.4,0.3-0.9,0.3s-0.5,0.1-0.9-0.1s0-0.2,0.3-0.4
	c0.3-0.2,0.6-0.6,0.7-0.6c0.1,0,0.5,0.3,0.7,0c0.1-0.3-0.3-0.5-0.3-0.5c-0.1,0-0.3-0.2-0.3-0.6s0.3-0.4,0.3-0.6c0-0.2,0-0.6-0.3-0.6
	c-0.3,0-0.6,0-0.8,0s-0.5,0-0.6-0.1c-0.1-0.1,0.1-0.3,0.4-0.1c0.2,0.2,0.9-0.2,0.9-0.2s0.2-0.2,0.2-0.4s-0.4-0.1-0.4-0.1
	s-0.6,0.1-0.8,0c-0.1-0.1,0.1-0.2,0.2-0.4c0.2-0.1,0.5-0.2,0.5-0.4c0-0.2,0.4-0.1,0-0.2c-0.3-0.1-0.4-0.1-0.3-0.4
	c0.1-0.3,0.4-0.3,0.1-0.3c-0.3,0,0.1,0-0.3,0c-0.4,0-0.4,0.4-0.4,0s-0.5-0.3,0-0.4c0.5-0.1,0.8-0.1,0.8-0.1s0.1-0.4-0.2-0.4
	s-0.5,0.3-0.5,0c0-0.3,0.1-0.1,0.2-0.3c0.1-0.2,0.4-0.5,0.2-0.6c-0.2-0.1-0.4-0.2-0.4-0.4c-0.1-0.1-0.2-0.6-0.4-0.2
	C200.5,178.7,200.5,178.7,200.5,178.7z"/>
<path id="XMLID_237_" class="st0" d="M196.4,176.2c-0.2-0.4,0-0.3-0.2-1.7c-0.1-1.4-0.5-0.1-0.4,0.3c0,0.4-0.1,0.9-0.1,1.1
	s0.2,0.6,0.1,0.7s-0.3-0.1-0.5-0.3c-0.2-0.2-0.4,0.1-0.4,0.3c0,0.2,0.2,0.4,0.2,0.7c0,0.3,0,0.6,0,0.9c0,0.3,0.4,0.5,0.4,0.5
	s0.1,0.1,0.2,0.2c0,0.1-0.4,0.1-0.6,0c-0.2-0.1-0.4-0.4-0.7-0.3c-0.3,0.1-0.3,0.4-0.3,0.4s-0.1,0.2,0,0.3c0.1,0.1,0.4,0.4,0.6,0.4
	s-0.1,0-0.6-0.1c-0.6-0.2-0.2,0.5-0.2,0.5s0.4,0.2,0.3,0.5s-0.3,0.4,0,0.6c0.3,0.1-0.1,0.3-0.4,0.2c-0.3-0.1-0.6-0.1-0.5,0.1
	c0.1,0.2,0.4,0.1,0.4,0.5c0,0.4,0,0.5,0.1,0.6c0.1,0.1,0.2,0.2,0.1,0.5c0,0.3,0.1,0.3,0.5,0.3c0.4,0,0.8-0.1,0.8,0
	c0,0.1,0.4,0.4,0.3,0.5c-0.1,0.1,0,0.1-0.6,0c-0.6-0.1-0.9,0-1,0.1c0,0.1-0.1,0.1-0.4,0.3c-0.3,0.3-0.1,0.3,0,0.5
	c0.1,0.2-0.2,0.3-0.2,0.5c-0.1,0.1,0.2,0.1,0.4,0.4c0.1,0.4-0.3,0.4-0.4,0.4c-0.1,0-0.2,0.4,0,0.5c0.2,0.1,0.4,0.5,0.4,0.6
	c0,0-0.3,0.1-0.2,0.4c0.1,0.3,0.1,0.3,0.6,0.5c0.5,0.2,0.9,0,1,0.2c0.1,0.2,0,0.2-0.2,0.2c-0.2,0-0.3-0.1-0.6,0
	c-0.3,0.1-0.6,0-0.6,0s-0.1-0.4-0.2,0c-0.1,0.4,0.2,0.1,0.3,0.5c0.1,0.4-0.3,0.5-0.5,0.3c-0.2-0.2-0.9-0.5-0.9-0.3
	c0,0.2,0,0.4,0.3,0.7c0.2,0.3,0.6,0.4,0.9,0.4c0.3,0,0.7,0.1,0.6,0.3c-0.1,0.1-0.4,0.2-0.5,0.2c-0.1,0-0.4,0.2-0.4,0.6
	c0,0.3-0.3,0.4-0.4,0.4c-0.1,0.1-0.3,0.5-0.1,0.7c0.2,0.2,0,0.5-0.2,0.5s-0.6,0.5-0.2,0.6c0.4,0.1,0.8,0.3,1,0.3s0.9-0.2,1.1-0.3
	c0.2-0.1,0.6-0.2,0.7-0.2c0.1,0,0.1,0.4-0.4,0.5c-0.4,0.1-1.1,0.1-1.5,0.2c-0.4,0.1-0.6,0.2-0.5,0.5c0.1,0.2,0.1,0.3,0.5,0.4
	c0.3,0.1,1,0.3,1.3,0c0.3-0.3,0.7-0.3,1.1-0.5s0.3-0.1,0.2,0.2s-0.4,0.1-0.6,0.5c-0.2,0.4-0.2,0.6-0.1,0.7c0.1,0.1,0.4,0.2,0.6,0
	c0.1-0.2,0.4-0.3,0.4-0.3l-0.1,2.3h0.8V195c0,0,0.4,0.1,0.4,0.4c0,0.2,0.3,0.3,0.5,0.1s0.9-0.3,0.6-0.6c-0.3-0.2-0.5-0.6-0.7-0.7
	c-0.2-0.1-0.5-0.4-0.1-0.3c0.4,0.1,0.4,0.2,0.9,0.2c0.5,0,0.5,0.1,1,0.1c0.4-0.1,1.1-0.1,0.9-0.4c-0.2-0.3-0.5-0.4-0.6-0.7
	c-0.1-0.3,0.5-0.1,0.2-0.6c-0.3-0.5,0.2-0.5-0.3-0.5s-0.4-0.5-1-0.3c-0.6,0.1-0.8-0.1-0.6-0.3c0.2-0.2,0-0.3-0.2-0.3
	s-0.6-0.2-0.6-0.2s0.4-0.1,0.7-0.1c0.3,0,0.2,0.2,1,0.1c0.8,0,0.4-0.2,0.8-0.3c0.4-0.1,0.8,0,0.9-0.3c0.1-0.3-0.1-0.4-0.3-0.5
	c-0.2-0.1-0.5,0-0.9,0.1c-0.4,0.1-0.5,0.2-0.6,0c-0.1-0.2,0.1-0.1,0.3-0.4c0.2-0.3,0.6-0.4,0.5-0.6c-0.1-0.3-0.8,0-0.8,0
	s0.3-0.2,0.3-0.5c0-0.2-0.1-0.3-0.3-0.2c-0.2,0.1-0.2,0.1-0.7,0.2c-0.4,0.1,0.3-0.1,0.4-0.4c0.1-0.3,0.3-0.5,0.2-0.6s0-0.3,0-0.5
	c0-0.2-0.3-0.2,0-0.4c0.3-0.2,0-0.5,0-0.4c0,0.1-0.5,0.3-0.6,0.3c-0.1,0-0.2-0.5,0.1-0.5c0.4,0,0.8-0.3,0.9-0.4
	c0.1-0.1,0.4-0.2,0.3-0.4c-0.1-0.3-0.7,0.1-0.8,0c-0.1-0.1-0.2-0.3,0-0.5c0.2-0.2,0.3-0.4,0.3-0.5c0.1-0.1,0.5-0.5,0.1-0.4
	c-0.4,0.1-0.4,0.3-0.9,0.3c-0.4,0-0.5,0.1-0.9-0.1c-0.4-0.2,0-0.2,0.3-0.4s0.6-0.6,0.7-0.6c0.1,0,0.5,0.3,0.7,0
	c0.1-0.3-0.3-0.5-0.3-0.5c-0.1,0-0.3-0.2-0.3-0.6c0-0.3,0.3-0.4,0.3-0.6c0-0.2,0-0.6-0.3-0.6s-0.6,0-0.8,0c-0.3,0-0.5,0-0.6-0.1
	c-0.1-0.1,0.1-0.3,0.4-0.1c0.2,0.2,0.9-0.2,0.9-0.2s0.2-0.2,0.2-0.4c0-0.3-0.4-0.1-0.4-0.1s-0.6,0.1-0.8,0c-0.1-0.1,0.1-0.2,0.2-0.4
	c0.2-0.1,0.5-0.2,0.5-0.4c0-0.2,0.4-0.1,0-0.2c-0.3-0.1-0.4-0.1-0.3-0.4s0.4-0.3,0.1-0.3s0.1,0-0.3,0c-0.4,0-0.4,0.4-0.4,0
	s-0.5-0.3,0-0.4c0.5-0.1,0.8-0.1,0.8-0.1s0.1-0.4-0.2-0.4s-0.5,0.3-0.5,0c0-0.3,0.1-0.1,0.2-0.3c0.1-0.2,0.4-0.5,0.2-0.6
	c-0.2-0.1-0.4-0.2-0.4-0.4c-0.1-0.1-0.2-0.6-0.4-0.2C196.4,176.2,196.4,176.2,196.4,176.2z"/>
<path id="XMLID_236_" class="st0" d="M207.9,180.7c-0.2-0.4,0-0.3-0.2-1.7c-0.1-1.4-0.5-0.1-0.4,0.3c0,0.4-0.1,0.9-0.1,1.1
	c0,0.2,0.2,0.6,0.1,0.7s-0.3-0.1-0.5-0.3c-0.2-0.2-0.4,0.1-0.4,0.3c0,0.2,0.2,0.4,0.2,0.7s0,0.6,0,0.9s0.4,0.5,0.4,0.5
	s0.1,0.1,0.2,0.2c0,0.1-0.4,0.1-0.6,0c-0.2-0.1-0.4-0.4-0.7-0.3c-0.3,0.1-0.3,0.4-0.3,0.4s-0.1,0.2,0,0.3s0.4,0.4,0.6,0.4
	c0.2,0-0.1,0-0.6-0.1c-0.6-0.2-0.2,0.5-0.2,0.5s0.4,0.2,0.3,0.5c-0.1,0.3-0.3,0.4,0,0.6s-0.1,0.3-0.4,0.2c-0.3-0.1-0.6-0.1-0.5,0.1
	c0.1,0.2,0.4,0.1,0.4,0.5s0,0.5,0.1,0.6c0.1,0.1,0.2,0.2,0.1,0.5c0,0.3,0.1,0.3,0.5,0.3c0.4,0,0.8-0.1,0.8,0s0.4,0.4,0.3,0.5
	c-0.1,0.1,0,0.1-0.6,0c-0.6-0.1-0.9,0-1,0.1c0,0.1-0.1,0.1-0.4,0.3c-0.3,0.3-0.1,0.3,0,0.5s-0.2,0.3-0.2,0.5
	c-0.1,0.1,0.2,0.1,0.4,0.4c0.1,0.4-0.3,0.4-0.4,0.4c-0.1,0-0.2,0.4,0,0.5c0.2,0.1,0.4,0.5,0.4,0.6c0,0-0.3,0.1-0.2,0.4
	c0.1,0.3,0.1,0.3,0.6,0.5c0.5,0.2,0.9,0,1,0.2c0.1,0.2,0,0.2-0.2,0.2s-0.3-0.1-0.6,0c-0.3,0.1-0.6,0-0.6,0s-0.1-0.4-0.2,0
	c-0.1,0.4,0.2,0.1,0.3,0.5c0.1,0.4-0.3,0.5-0.5,0.3c-0.2-0.2-0.9-0.5-0.9-0.3c0,0.2,0,0.4,0.3,0.7c0.2,0.3,0.6,0.4,0.9,0.4
	c0.3,0,0.7,0.1,0.6,0.3c-0.1,0.1-0.4,0.2-0.5,0.2c-0.1,0-0.4,0.2-0.4,0.6c0,0.3-0.3,0.4-0.4,0.4c-0.1,0.1-0.3,0.5-0.1,0.7
	c0.2,0.2,0,0.5-0.2,0.5c-0.2,0.1-0.6,0.5-0.2,0.6c0.4,0.1,0.8,0.3,1,0.3s0.9-0.2,1.1-0.3c0.2-0.1,0.6-0.2,0.7-0.2s0.1,0.4-0.4,0.5
	c-0.4,0.1-1.1,0.1-1.5,0.2c-0.4,0.1-0.6,0.2-0.5,0.5c0.1,0.2,0.1,0.3,0.5,0.4c0.3,0.1,1,0.3,1.3,0s0.7-0.3,1.1-0.5
	c0.3-0.2,0.3-0.1,0.2,0.2c-0.1,0.3-0.4,0.1-0.6,0.5c-0.2,0.4-0.2,0.6-0.1,0.7c0.1,0.1,0.4,0.2,0.6,0c0.1-0.2,0.4-0.3,0.4-0.3
	l-0.1,2.3h0.8v-2.4c0,0,0.4,0.1,0.4,0.4c0,0.2,0.3,0.3,0.5,0.1c0.3-0.1,0.9-0.3,0.6-0.6c-0.3-0.2-0.5-0.6-0.7-0.7
	c-0.2-0.1-0.5-0.4-0.1-0.3c0.4,0.1,0.4,0.2,0.9,0.2c0.5,0,0.5,0.1,1,0.1c0.4-0.1,1.1-0.1,0.9-0.4c-0.2-0.3-0.5-0.4-0.6-0.7
	c-0.1-0.3,0.5-0.1,0.2-0.6c-0.3-0.5,0.2-0.5-0.3-0.5c-0.5,0-0.4-0.5-1-0.3c-0.6,0.1-0.8-0.1-0.6-0.3c0.2-0.2,0-0.3-0.2-0.3
	c-0.2,0-0.6-0.2-0.6-0.2s0.4-0.1,0.7-0.1c0.3,0,0.2,0.2,1,0.1c0.8,0,0.4-0.2,0.8-0.3c0.4-0.1,0.8,0,0.9-0.3c0.1-0.3-0.1-0.4-0.3-0.5
	c-0.2-0.1-0.5,0-0.9,0.1c-0.4,0.1-0.5,0.2-0.6,0c-0.1-0.2,0.1-0.1,0.3-0.4c0.2-0.3,0.6-0.4,0.5-0.6c-0.1-0.3-0.8,0-0.8,0
	c0,0,0.3-0.2,0.3-0.5c0-0.2-0.1-0.3-0.3-0.2c-0.2,0.1-0.2,0.1-0.7,0.2c-0.4,0.1,0.3-0.1,0.4-0.4c0.1-0.3,0.3-0.5,0.2-0.6
	c-0.1-0.1,0-0.3,0-0.5c0-0.2-0.3-0.2,0-0.4c0.3-0.2,0-0.5,0-0.4c0,0.1-0.5,0.3-0.6,0.3c-0.1,0-0.2-0.5,0.1-0.5
	c0.4,0,0.8-0.3,0.9-0.4c0.1-0.1,0.4-0.2,0.3-0.4c-0.1-0.3-0.7,0.1-0.8,0c-0.1-0.1-0.2-0.3,0-0.5c0.2-0.2,0.3-0.4,0.3-0.5
	c0.1-0.1,0.5-0.5,0.1-0.4c-0.4,0.1-0.4,0.3-0.9,0.3c-0.4,0-0.5,0.1-0.9-0.1c-0.4-0.2,0-0.2,0.3-0.4c0.3-0.2,0.6-0.6,0.7-0.6
	c0.1,0,0.5,0.3,0.7,0c0.1-0.3-0.3-0.5-0.3-0.5c-0.1,0-0.3-0.2-0.3-0.6s0.3-0.4,0.3-0.6c0-0.2,0-0.6-0.3-0.6c-0.3,0-0.6,0-0.8,0
	s-0.5,0-0.6-0.1c-0.1-0.1,0.1-0.3,0.4-0.1s0.9-0.2,0.9-0.2s0.2-0.2,0.2-0.4c0-0.3-0.4-0.1-0.4-0.1s-0.6,0.1-0.8,0
	c-0.1-0.1,0.1-0.2,0.2-0.4c0.2-0.1,0.5-0.2,0.5-0.4c0-0.2,0.4-0.1,0-0.2c-0.3-0.1-0.4-0.1-0.3-0.4c0.1-0.3,0.4-0.3,0.1-0.3
	s0.1,0-0.3,0c-0.4,0-0.4,0.4-0.4,0c0-0.4-0.5-0.3,0-0.4c0.5-0.1,0.8-0.1,0.8-0.1s0.1-0.4-0.2-0.4c-0.3,0.1-0.5,0.3-0.5,0
	c0-0.3,0.1-0.1,0.2-0.3c0.1-0.2,0.4-0.5,0.2-0.6c-0.2-0.1-0.4-0.2-0.4-0.4c-0.1-0.1-0.2-0.6-0.4-0.2
	C207.9,180.7,207.9,180.7,207.9,180.7z"/>
<path id="XMLID_235_" class="st0" d="M125.9,158.9c-0.4-0.9-0.1-0.6-0.4-3.8c-0.3-3.1-1-0.1-1,0.7c0.1,0.9-0.3,2-0.3,2.4
	c0,0.4,0.5,1.4,0.1,1.5c-0.4,0.1-0.7-0.3-1.2-0.7c-0.5-0.4-0.8,0.2-0.8,0.7c0,0.5,0.5,0.9,0.5,1.5s-0.1,1.3-0.1,2c0,0.7,0.9,1,0.9,1
	s0.3,0.2,0.4,0.5c0.1,0.3-0.8,0.3-1.3,0c-0.5-0.3-0.9-0.8-1.5-0.7c-0.7,0.1-0.7,0.9-0.7,0.9s-0.3,0.4,0,0.6s0.9,0.8,1.3,0.8
	s-0.2,0.1-1.4-0.3c-1.3-0.4-0.5,1.2-0.5,1.2s0.9,0.4,0.7,1.1c-0.2,0.7-0.6,1,0,1.2c0.6,0.3-0.3,0.7-1,0.4c-0.7-0.3-1.4-0.3-1.1,0.1
	c0.3,0.4,0.8,0.2,0.8,1.1c0,0.9,0,1.1,0.3,1.4c0.3,0.3,0.4,0.5,0.3,1.1c-0.1,0.6,0.2,0.7,1.1,0.7c0.9,0,1.8-0.3,1.8,0
	c0,0.3,0.9,1,0.6,1.1c-0.3,0.1,0,0.2-1.4,0c-1.4-0.2-2.1,0-2.2,0.1c-0.1,0.1-0.3,0.1-0.9,0.7c-0.6,0.6-0.2,0.7-0.1,1.2
	c0.1,0.5-0.4,0.7-0.5,1c-0.1,0.3,0.5,0.2,0.8,0.9c0.3,0.8-0.6,0.9-0.8,0.9c-0.2,0-0.4,0.8,0,1.1c0.4,0.3,0.9,1.2,0.9,1.2
	c0,0-0.7,0.1-0.5,0.8c0.2,0.7,0.2,0.6,1.3,1c1.1,0.5,1.9,0.1,2.2,0.5c0.3,0.4-0.1,0.5-0.5,0.5c-0.4,0-0.7-0.2-1.4,0
	c-0.7,0.2-1.4,0-1.4,0s-0.3-0.9-0.5,0.1c-0.1,1,0.5,0.2,0.7,1.1c0.2,0.9-0.7,1.1-1.1,0.7c-0.5-0.5-2-1.1-2-0.6s0.1,0.9,0.6,1.6
	c0.5,0.7,1.4,0.9,2.1,1c0.7,0.1,1.5,0.3,1.2,0.6c-0.3,0.3-0.8,0.4-1,0.5s-1,0.5-0.9,1.2c0.1,0.7-0.7,0.8-0.8,1
	c-0.1,0.2-0.6,1.2-0.2,1.6c0.4,0.5-0.1,1-0.5,1.2c-0.5,0.1-1.2,1.2-0.5,1.4c0.8,0.2,1.8,0.7,2.2,0.7c0.4,0,2-0.5,2.4-0.7
	c0.4-0.1,1.4-0.5,1.6-0.5c0.2,0,0.1,0.9-0.9,1.2c-1,0.3-2.5,0.3-3.3,0.5s-1.4,0.5-1,1c0.3,0.5,0.3,0.7,1,0.9c0.7,0.2,2.2,0.7,2.9,0
	c0.7-0.7,1.6-0.7,2.4-1.2c0.7-0.5,0.7-0.2,0.5,0.5c-0.1,0.7-0.8,0.2-1.3,1c-0.5,0.8-0.4,1.4-0.2,1.5c0.2,0.1,0.9,0.5,1.2,0
	c0.3-0.5,0.9-0.7,0.9-0.7l-0.1,5.2h1.8V201c0,0,0.8,0.3,0.9,0.8c0.1,0.5,0.6,0.6,1.2,0.3c0.6-0.3,1.9-0.7,1.2-1.2
	c-0.7-0.5-1-1.4-1.5-1.5c-0.5-0.1-1.2-0.9-0.3-0.7c0.9,0.1,0.9,0.5,1.9,0.5c1.1,0,1.2,0.3,2.2,0.1c1-0.1,2.5-0.3,2.1-1
	c-0.4-0.7-1.1-0.9-1.4-1.5c-0.3-0.6,1.1-0.2,0.4-1.3c-0.7-1.1,0.3-1.2-0.7-1.1c-1,0.1-0.9-1.1-2.1-0.8c-1.2,0.3-1.8-0.1-1.4-0.7
	c0.4-0.5,0-0.7-0.5-0.7c-0.5,0-1.4-0.5-1.4-0.5s0.9-0.3,1.6-0.3c0.7,0,0.4,0.4,2.1,0.3c1.8-0.1,0.9-0.5,1.8-0.6
	c0.9-0.1,1.9,0,2.1-0.7c0.2-0.7-0.1-0.8-0.7-1.1c-0.5-0.3-1,0.1-1.9,0.3c-0.9,0.2-1.1,0.4-1.4-0.1c-0.3-0.5,0.2-0.3,0.6-1
	c0.5-0.7,1.4-0.9,1-1.4c-0.3-0.6-1.8-0.1-1.7-0.1c0.1,0,0.7-0.5,0.7-1c0-0.5-0.2-0.6-0.7-0.4c-0.5,0.2-0.6,0.3-1.5,0.5
	c-0.9,0.1,0.7-0.3,0.9-0.9c0.3-0.7,0.7-1,0.6-1.3c-0.2-0.3-0.1-0.7,0-1.2c0.1-0.5-0.6-0.4,0-0.9c0.6-0.5,0-1.1,0-0.9
	c0,0.3-1.1,0.6-1.3,0.6s-0.5-1.1,0.3-1.2c0.9,0,1.8-0.7,2.1-0.9s1-0.4,0.7-0.9c-0.3-0.6-1.5,0.2-1.8,0c-0.3-0.2-0.4-0.8,0-1.1
	c0.4-0.4,0.6-0.9,0.7-1c0.1-0.2,1-1.2,0.2-1c-0.9,0.2-0.9,0.6-1.9,0.6c-1,0-1,0.3-2-0.1c-0.9-0.5,0.1-0.5,0.7-0.9
	c0.6-0.4,1.2-1.2,1.6-1.2c0.3,0,1.2,0.7,1.5,0c0.3-0.7-0.6-1.1-0.8-1c-0.2,0.1-0.6-0.5-0.6-1.2c0-0.7,0.7-0.9,0.6-1.4
	c-0.1-0.5,0.1-1.3-0.6-1.3c-0.7,0-1.2,0.1-1.8,0.1c-0.6,0-1,0-1.3-0.3s0.3-0.7,0.8-0.2c0.5,0.5,2-0.5,2-0.5s0.5-0.4,0.5-1
	s-0.9-0.1-0.9-0.1s-1.4,0.1-1.8,0c-0.3-0.1,0.1-0.5,0.5-0.8c0.4-0.3,1-0.4,1.1-0.9c0.1-0.5,0.8-0.3,0.1-0.5
	c-0.7-0.2-0.9-0.2-0.7-0.8c0.3-0.6,1-0.6,0.3-0.6c-0.7,0,0.3,0.1-0.7,0c-1-0.1-1,0.8-1-0.1c0-0.9-1-0.7,0-0.9c1-0.1,1.7-0.2,1.7-0.2
	s0.2-1-0.5-0.8c-0.7,0.2-1.1,0.6-1.2,0c-0.1-0.6,0.2-0.3,0.5-0.7c0.3-0.5,0.8-1,0.4-1.2c-0.4-0.2-0.9-0.5-1-0.8
	c-0.1-0.3-0.4-1.3-0.9-0.5C125.9,158.9,125.9,158.9,125.9,158.9z"/>
<path id="XMLID_234_" class="st0" d="M87.7,150.5c0,0-0.2-0.3-0.8,0c-0.6,0.3-1.2,0.9-1.7,1c-0.5,0.1-1.1-0.5-1.6,0
	c-0.5,0.5-2.2,0.3-2,0c0.2-0.3-0.1,0.2,0.5-0.4c0.6-0.6,0.7-0.7,1.2-1.5c0.5-0.7,0.5-0.2,0.9-0.7c0.3-0.5,0.5-1,0.4-1.3
	c-0.1-0.2-0.3-0.2-0.7,0c-0.4,0.2-0.7,0.6-1.3,0.6c-0.5,0-1.2,0.2-1.5,0c-0.3-0.2-1.1-0.3-1.1-0.3s-0.5-0.3,0-0.4
	c0.5-0.1,0.8,0.2,1.3,0c0.5-0.2,0.9-0.3,1.5-0.4c0.6-0.1,1,0.2,1.4,0c0.3-0.2,0.5-0.2,0.9-0.5c0.3-0.3,0.6-0.6,0.6-0.8
	c0-0.2-0.5-0.6-0.7-0.3c-0.2,0.2-0.7,0.6-0.9,0.6c-0.2,0-0.7,0.1-0.9,0c-0.2-0.1-1-0.2-1.1-0.3c-0.1,0-0.9,0-0.9,0s-0.4,0.2-0.5,0
	c-0.1-0.2-0.8-0.5-0.8-0.5s-0.3,0-0.7,0c-0.4,0-0.6-0.2-0.5-0.4c0.1-0.2,0.6,0.3,1,0c0.4-0.3,1.7-0.2,2.1,0c0.4,0.1,0.6-0.3,1-0.1
	c0.4,0.2,1-0.1,1.4,0s0.8-0.2,1.2-0.4c0.4-0.2,0.9-0.5,0.9-0.9s0.6-0.9,0.1-0.8c-0.4,0-0.2,0.5-0.7,0.6c-0.4,0.1-0.9,0.6-1.3,0.7
	c-0.4,0.1-0.8-0.4-1.3-0.3c-0.5,0.1-0.7,0.1-0.9,0.1c-0.5,0-1.5,0.4-1-0.4c0.5-0.8,1.4-0.6,1.6-0.8c0.2-0.2,0.4-0.4,0.3-0.8
	c-0.1-0.3,0.5-0.7,0-0.7s-1,0.6-1,0.6s-0.6,0.2-1.1,0.2c-0.4,0-0.7-0.2-0.6-0.4c0.1-0.2,0.3-0.2,0.9-0.5c0.6-0.3,1.6-0.1,1.8-0.7
	c0.2-0.5,0.4-0.8,0.6-1.2c0.2-0.3,0.4-0.8,0.4-0.8s-0.9,0.2-1,0.3c-0.1,0-0.4,0.1-1,0.2c-0.6,0.1-1-0.5-1-0.5s1.2,0.3,1.4,0
	c0.2-0.3,0-0.5,0.6-0.6s-0.5-0.6-0.7-0.4c-0.2,0.1-0.7,0.3-1,0.5c-0.3,0.1-0.5,0.1-1.1,0.1c-0.5,0-0.6,0.2-0.9-0.2
	c-0.2-0.4-0.2-0.3,0.2-0.5c0.4-0.2,1.1,0.1,1.3,0c0.2-0.1,0.6,0.5,1-0.1c0.4-0.6,0.7-0.6,1.2-0.8s1.2-0.9,1.2-0.9s-0.4-0.1-0.7,0
	c-0.2,0.1-1.4-0.4-1.9,0c-0.5,0.4-0.5,0.8-1.2,0.6c-0.6-0.2-0.7-0.4-0.5-0.7c0.2-0.4,0.6-0.7,1.1-0.8c0.5-0.1,1.1-0.1,1.2-0.4
	c0.1-0.2,0.9-0.5,0.7-0.7c-0.2-0.2,0.3-0.1-0.2-0.2c-0.4,0-1.4,0.4-1.4,0.4s-1-0.5-1-0.4c0,0.1,0.5-0.3,0.9-0.6
	c0.3-0.2,0.5-0.1,1-0.4c0.5-0.3,0.6-0.6,0.7-0.8c0.1-0.1-0.1-0.5-0.3-0.4c-0.2,0.1-0.7,0.4-0.9,0.4c-0.2,0-0.9,0.1-1,0.2
	c-0.1,0.1-0.3,0.4-1,0.3c-0.7-0.1-1-1-0.8-0.9c0.2,0.1,1.2,0.4,1.3,0c0.1-0.4,0.8-0.5,0.8-1.1c0-0.5,0.4-1.3,0.4-1.3s-0.1-0.5-0.5,0
	c-0.4,0.5-0.8,1.2-1,1.3c-0.2,0.1-0.5,0.6-0.6,0.3c-0.1-0.2,0-0.5,0.1-0.9c0.1-0.4,0.3-1.1,0.3-1.5c0-0.3,0-0.9-0.1-1.1
	c0-0.2-0.4-0.3-0.4,0c0,0.3-0.6,0.9-0.6,0.9s-0.4,0.3-0.4-0.1c0-0.4,0.1-0.5,0-1.3c-0.1-0.8-0.4-1.2-0.5-1.7
	c-0.1-0.5-0.7-0.9-0.5-0.5c0.1,0.4-0.3,0.6,0,1.4c0.3,0.8,0.7,1.4,0.5,1.7c-0.2,0.3-0.2,0.1-0.6-0.4c-0.4-0.5-1-0.5-1-0.5
	s0,0.8,0,1.2c0,0.3,0.3,0.4,0.5,0.7c0.2,0.3-0.1,0.6-0.6,0.4c-0.5-0.2-0.5-0.6-0.8-0.7c-0.2-0.1-0.3-0.3-0.3,0.2
	c0,0.5-0.4,0.8,0,1.1c0.4,0.2,1.1,0.5,1.3,0.5c0.1,0,0.8,0,0.9,0.3c0.1,0.3-0.1,0.7-0.4,0.6c-0.3-0.1-0.6,0-1.2-0.3
	c-0.5-0.2-0.5-0.8-0.8-0.8c-0.4,0,0.2,0.3,0,0.5c-0.2,0.1-0.4,0.1-0.7,0.3c-0.2,0.2,0.2,0.6,0.4,0.6c0.1,0,0.1,0.7,0.6,0.7
	c0.5,0,0,0.1,0.5,0c0.4,0,0.7,0.4,0.3,0.6c-0.4,0.1-0.8,0-1.2-0.1c-0.4-0.2-1.1-0.5-1.2-0.3c0,0.2,0.6,0.8,0,0.8s-0.7,0.4-0.8,0.6
	c0,0.1,0.3,0.4,0.6,0.8c0.2,0.4,2,0.6,2,0.6s0.6,0.4,0.3,0.6c-0.3,0.2-0.7,0.5-1.3,0.2c-0.5-0.3-0.1-0.3-0.9-0.4
	c-0.8-0.1-0.7-0.1-1.1-0.4c-0.4-0.3-0.6-0.6-0.8-0.3c-0.1,0.2-0.2,0.5,0,0.7c0.2,0.2,0.3,0.7,0.6,0.7c0.3,0-0.7,0.2-1.1-0.2
	c-0.4-0.5-0.8,0-0.6,0.4c0.4,0.5,0.4,0.4,0.6,0.8c0.2,0.5,1,0.5,1.3,0.7c0.3,0.2,0.1,0.5,0.4,0.8c0.2,0.3,1,0.5,1,0.5
	s0.5,0.2,1.2,0.2c0.6,0,1.2,0.2,1.2,0.2s-0.8,0.5-1.3,0.5c-0.5,0-1,0-1.7-0.2c-0.7-0.3-1-0.5-1.3-0.5s-0.3,0.3-0.2,0.7
	c0.1,0.3,0.8,0.1,1.1,0.4c0.3,0.3,0.5,0.6,0.3,0.6c-0.1,0-0.3,0.2-0.8,0.1c-0.5-0.1-0.6,0.2-0.4,0.4c0.2,0.2,0.6,0.3,0.9,0.7
	c0.3,0.3,1.2,0.3,1.4,0.3c0.1,0-0.3,0.3-0.8,0.4c-0.5,0.1-0.5,0-1.5-0.1c-1-0.1-1.5-0.8-1.5-0.4c0,0.6,0.2,0.4,0.3,1.3
	c0.1,0.8,0.2,0.7,0.6,0.9c0.4,0.2,0.6,0.6,0.8,0.8c0.2,0.2,0.4,0,1.1,0c0.7,0,0.7-0.1,1.4-0.2c0.7-0.1,1.7-0.4,1.7-0.4
	s0.4,0.1,0.1,0.4c-0.3,0.3-0.4,0.4-1.2,0.4c-0.8,0-1.5,0.2-1.7,0.3c-0.1,0.1-0.6,0.4-0.2,0.6c0.4,0.1,0.9,0.1,0.8,0.5
	c-0.1,0.4-0.5,0.8-0.9,0.4c-0.4-0.3-0.8,0-1.1-0.6c-0.3-0.5-0.8-0.6-0.8-0.3s-0.6,0.6,0,1c0.7,0.4,1.5,0.2,1.5,0.4
	c0,0.2,0.5,0,0.7,0.2c0.2,0.2,0.8,0.4,1.3,0.2c0.4-0.2,0.9-0.3,1.5-0.5c0.6-0.1,0.9-0.5,0.8,0.2c-0.1,0.7,0,0.7-1,0.7
	c-1,0-0.8,0.4-1.6,0.6c-0.8,0.2-1,0.6-1.7,0.3c-0.7-0.3-0.5-0.9-1.3-0.9c-0.8,0-1.2,0-1.2,0s-0.2,0.5,0,0.9c0.2,0.4,0.6,0.6,1.2,0.6
	c0.6,0,0.4,0,1.3,0c0.9,0,1.2,0,1.9-0.2c0.6-0.2,1.2-0.8,1.4-0.3c0.2,0.5,0,0.8-0.8,1c-0.8,0.2-0.9,0.3-1.8,0.3
	c-0.9,0-1.2,0.1-1.7,0c-0.4,0-0.4,0.9-0.9,0.5c-0.5-0.4-0.2,0.4,0,0.6c0.2,0.2-0.8-0.2-1,0c-0.2,0.2,0,0.4,0,0.8
	c0,0.4,0.8,0.8,1,1.4c0.2,0.6,1.1,0.3,1.3,0.9c0.2,0.6,0.8,1.1,1.6,1.1c0.8,0,1.5,0.3,0.7,0.5c-0.7,0.2-1.3,0.1-1.7,0
	c-0.4-0.1-0.6-0.3-1.2-0.5c-0.6-0.2-0.7-0.6-1.2-0.4c-0.5,0.2-0.5,0.4-0.2,0.7c0.2,0.3,0.9,1,1.1,1.1c0.2,0,0.7-0.1,1.1,0
	c0.4,0.1,1.1-0.1,1.3,0c0.2,0.1,0.7,0.2,1,0.1c0.1,0,0.3-0.1,0.3-0.1c0.3-0.3,0.6-0.5,0.8-0.4c0.2,0.1,0.7,0,0.6,0.6
	c-0.1,0.6-0.6,0.9-1,0.6c-0.3-0.3-0.9-0.2-1.4,0.1c-0.5,0.3-0.2-0.3-1,0c-0.7,0.3-1.1,0.2-1.4,0.1c-0.3-0.1-0.6-0.8-0.7-0.2
	c-0.1,0.6,0.3,1.1,0.6,1.3c0.2,0.2,0.5,0.3,0.5,0.8c0,0.4,0.8,0.5,0.7,0.9c-0.1,0.3-0.6,0.8-1,0.6c-0.4-0.2-0.5-0.6-1.2-0.6
	c-0.7,0-1,0.1-1.5-0.1c-0.5-0.2-1-0.7-1.1-0.2c-0.1,0.4,1.2,1.7,1.6,1.8c0.4,0.1,0.3,0.3,1,0.4c0.6,0.1,0.7-0.1,1.2,0
	s0.9,0.3,1.3,0.3c0.4,0,1.4,0,1.4,0s0.7,0.1,0.6,0.3c-0.1,0.2-0.8,0.5-1.6,0.4c-0.7,0-1.1,0.4-1.7,0c-0.6-0.4-1.4-0.9-1.5-0.5
	c-0.1,0.4-0.6,0.7-1,0.6c-0.4-0.1-0.5,0.7-0.5,0.8s-0.2,0.9,0.3,1c0.5,0.1,0.9,0.4,1.3,0.6c0.3,0.2,1.1-0.1,1.4,0
	c0.3,0.1,0.9,0.3,1.4,0.1c0.5-0.2,1.2-0.5,1.9-0.9c0.7-0.4,1-0.6,1.4-0.8c0.4-0.2,0.8,0.3,0.5,1c-0.3,0.7-1.3,1.1-1.9,1.3
	c-0.6,0.2-0.6,0.4-1.1,0.8c-0.5,0.3-0.2,0-1.4,0c-1.2,0-1.1-0.2-2.3,0.2c-1.1,0.3-1.1,0.1-1.5,0.5c-0.3,0.3-0.7-0.3-0.3,0.3
	c0.4,0.6,0.4,0.3,1.3,0.7c0.9,0.4,0.7,0.8,1.9,0.5c1.1-0.3,1.3-0.5,1.7-0.5c0.4,0,1.1-0.6,0.4,0c-0.7,0.6-1.1,1.2-1.5,1.2
	c-0.4,0-1.2-0.1-1.9,0c-0.6,0.1-0.9-0.1-1.5,0c-0.6,0.1-0.8,0.4-0.5,0.7c0.2,0.2-0.2,0.8,0.7,1.1c0.9,0.3,2,0.6,2.8,0
	c0.7-0.6,1.2-0.6,1.7-0.8c0.5-0.2,0.9-0.6,1.1-0.4c0.1,0.2,0.8,0.4,0.3,0.9c-0.5,0.5-0.2,0.5-1.1,0.9s-1.5,0.9-2.1,0.8
	c-0.6-0.1-1.3,0.6-2.2,0c-0.9-0.6-1.5-0.7-1.7-0.2c-0.1,0.5-0.5,1.2,0,1.5c0.5,0.2,1.4,0.5,1.4,0.9c0,0.4,0.7,1.4,1.2,0.9
	c0.5-0.5,1.6-0.5,2.2-0.9c0.6-0.4,1.7-0.8,2.3-1.1c0.6-0.2,1.9-1,2-0.6c0.1,0.3,0,8.3,0,8.3h1.7l0.1-7.8c0,0,0.4,0,0.5,0.4
	c0,0.4,0.4,0.6,0.6,0.9c0.1,0.3,0.5,0.8,0.8,0.8c0.2,0,0.7,0.2,0.8,0.5c0.1,0.3,0.5,0.4,0.8,0.6c0.3,0.2,0.8,0.2,1.3,0.3
	c0.5,0.1,0.6-0.3,1.1-0.4c0.5-0.1,1-0.2,1-0.6c0-0.4,0.2-0.7,0-0.8c-0.2-0.1-0.8,0-1.2,0c-0.4,0-1.6-0.2-2-0.4
	c-0.4-0.2-0.3-0.9-0.3-0.9s1-0.4,0.6-0.7c-0.4-0.3-0.4-0.5-0.9-0.4c-0.4,0.1-0.9-0.6-0.9-0.8c0-0.2,0-0.9,0.4-0.8
	c0.4,0.1,0.9,0.3,1.2,0.6c0.3,0.3,1-0.4,1.6-0.4c0.6,0,0.6,0,1.3-0.3c0.7-0.4,1-1,1-1.3c0-0.3-0.9-0.4-1.2-0.2
	c-0.3,0.1-1,0.8-1.9,0.1c-0.9-0.7-1.3-1-1.9-1s-1.3-0.2-1.6-0.6c-0.3-0.4-1.3-0.6-1.5-0.7c-0.2-0.1,0-2.1,0-2.1s1.3,0.3,1.3,0.8
	c0,0.4,0.2,0.9,0.3,1c0.1,0.1,0.5-0.2,1.3,0.2c0.8,0.4-0.1,0.2,0.8,0.4c0.9,0.2,1.2,0.1,1.9,0c0.7-0.2,0.8-0.1,1.3-0.4
	c0.5-0.2,1.4-0.1,1.2-0.9c-0.1-0.8-0.5-1.1-0.6-0.9c-0.1,0.1-0.7,0.4-0.7,0.1s-0.5-0.9-0.7-0.7c-0.1,0.2-0.3,0.4-0.8,0.3
	c-0.5-0.1-0.4-0.2-1.2-0.1c-0.7,0-0.4,0.2-1.1,0c-0.7-0.2-1.2-0.6-1.2-0.6s-0.4-0.7,0-0.5c0.5,0.2,0.5,0.2,1.3,0.2
	c0.7,0,1-0.3,1.5-0.1c0.5,0.2,1,0.4,1.5,0.2c0.4-0.2,1.1-0.5,1.3-0.9c0.1-0.4,0.5-0.8,0.5-0.8s-0.3-0.5-0.8-0.2
	c-0.5,0.3-0.7,0.2-0.5-0.1c0.2-0.3,0.8-1,0.6-1.1c-0.2-0.1-0.3-0.4-0.7-0.1c-0.4,0.3-0.6,0.1-1.5,0.3c-0.9,0.2-1.2,0.3-1.9,0.2
	c-0.7-0.1-0.7-0.3-1.7-0.4c-1,0-1.3,0.3-1.4-0.4c-0.1-0.7,0-1.2,0-1.2s0.4,0.2,0.5,0.4c0,0.2,0,0.1,0.5,0.7c0.5,0.5,0.8,0.2,1.6,0.1
	c0.8,0,0.2,0.1,1.5,0c1.3-0.2,1.3-0.4,1.9-0.6c0.6-0.2,1.1,0,1.4-0.4c0.3-0.4,0.7-0.4,0.7-1s0.4-1.1,0.1-1.3
	c-0.3-0.2-0.5,0.2-1.1,0.4c-0.6,0.2-1.5,0.4-1.7,0.3c-0.1-0.1-1-0.1-0.4-0.6c0.6-0.5,1.1-0.7,0.8-0.9c-0.3-0.2-0.9-0.5-0.3-0.7
	c0.6-0.2,0.9-0.8,0.9-0.8s0.7-0.1,0.6-0.7c0-0.6-0.7-0.4-0.7-0.8c0-0.4-1.2,0.1-1.8,0.1c-0.6,0-1,0.1-1.2-0.1c-0.2-0.2,0.4-1,1-0.9
	c0.6,0.1,1.4,0.1,1.5-0.5c0.1-0.6-0.5,0.1,0.1-0.6c0.6-0.7,0.5-0.7,1.2-1.1c0.7-0.4,0.3-0.1,1.1-0.7C88,151.2,87.7,150.5,87.7,150.5
	z"/>
<path id="XMLID_233_" class="st0" d="M59.5,120.6c-0.4-0.9-0.1-0.6-0.4-3.8c-0.3-3.1-1-0.1-1,0.7c0.1,0.9-0.3,2-0.3,2.4
	c0,0.4,0.5,1.4,0.1,1.5c-0.4,0.1-0.7-0.3-1.2-0.7c-0.5-0.4-0.8,0.2-0.8,0.7c0,0.5,0.5,0.9,0.5,1.5c0,0.6-0.1,1.3-0.1,2
	c0,0.7,0.9,1,0.9,1s0.3,0.2,0.4,0.5c0.1,0.3-0.8,0.3-1.3,0c-0.5-0.3-0.9-0.8-1.5-0.7c-0.7,0.1-0.7,0.9-0.7,0.9s-0.3,0.4,0,0.6
	c0.3,0.2,0.9,0.8,1.3,0.8c0.5,0-0.2,0.1-1.4-0.3c-1.3-0.4-0.5,1.2-0.5,1.2s0.9,0.4,0.7,1.1c-0.2,0.7-0.6,1,0,1.2
	c0.6,0.3-0.3,0.7-1,0.4c-0.7-0.3-1.4-0.3-1.1,0.1c0.3,0.4,0.8,0.2,0.8,1.1c0,0.9,0,1.1,0.3,1.4c0.3,0.3,0.4,0.5,0.3,1.1
	s0.2,0.7,1.1,0.7c0.9,0,1.8-0.3,1.8,0c0,0.3,0.9,1,0.6,1.1c-0.3,0.1,0,0.2-1.4,0c-1.4-0.2-2.1,0-2.2,0.1c-0.1,0.1-0.3,0.1-0.9,0.7
	c-0.6,0.6-0.2,0.7-0.1,1.2c0.1,0.5-0.4,0.7-0.5,1c-0.1,0.3,0.5,0.2,0.8,0.9c0.3,0.8-0.6,0.9-0.8,0.9c-0.2,0-0.4,0.8,0,1.1
	c0.4,0.3,0.9,1.2,0.9,1.2c0,0-0.7,0.1-0.5,0.8c0.2,0.7,0.2,0.6,1.3,1c1.1,0.5,1.9,0.1,2.2,0.5c0.3,0.4-0.1,0.5-0.5,0.5
	s-0.7-0.2-1.4,0c-0.7,0.2-1.4,0-1.4,0s-0.3-0.9-0.5,0.1c-0.1,1,0.5,0.2,0.7,1.1c0.2,0.9-0.7,1.1-1.1,0.7c-0.5-0.5-2-1.1-2-0.6
	c0,0.5,0.1,0.9,0.6,1.6c0.5,0.7,1.4,0.9,2.1,1c0.7,0.1,1.5,0.3,1.2,0.6c-0.3,0.3-0.8,0.4-1,0.5c-0.3,0.1-1,0.5-0.9,1.2
	c0.1,0.7-0.7,0.8-0.8,1c-0.1,0.2-0.6,1.2-0.2,1.6c0.4,0.5-0.1,1-0.5,1.2c-0.5,0.1-1.2,1.2-0.5,1.4c0.8,0.2,1.8,0.7,2.2,0.7
	c0.4,0,2-0.5,2.4-0.7c0.4-0.1,1.4-0.5,1.6-0.5c0.2,0,0.1,0.9-0.9,1.2c-1,0.3-2.5,0.3-3.3,0.5c-0.8,0.3-1.4,0.5-1,1
	c0.3,0.5,0.3,0.7,1,0.9c0.7,0.2,2.2,0.7,2.9,0c0.7-0.7,1.6-0.7,2.4-1.2c0.7-0.5,0.7-0.2,0.5,0.5c-0.1,0.7-0.8,0.2-1.3,1
	c-0.5,0.8-0.4,1.4-0.2,1.5c0.2,0.1,0.9,0.5,1.2,0c0.3-0.5,0.9-0.7,0.9-0.7l-0.1,5.2h1.8v-5.4c0,0,0.8,0.3,0.9,0.8
	c0.1,0.5,0.6,0.6,1.2,0.3c0.6-0.3,1.9-0.7,1.2-1.2c-0.7-0.5-1-1.4-1.5-1.5c-0.5-0.1-1.2-0.9-0.3-0.7c0.9,0.1,0.9,0.5,1.9,0.5
	c1.1,0,1.2,0.3,2.2,0.1c1-0.1,2.5-0.3,2.1-1c-0.4-0.7-1.1-0.9-1.4-1.5c-0.3-0.6,1.1-0.2,0.4-1.3c-0.7-1.1,0.3-1.2-0.7-1.1
	c-1,0.1-0.9-1.1-2.1-0.8c-1.2,0.3-1.8-0.1-1.4-0.7c0.4-0.5,0-0.7-0.5-0.7s-1.4-0.5-1.4-0.5s0.9-0.3,1.6-0.3c0.7,0,0.4,0.4,2.1,0.3
	c1.8-0.1,0.9-0.5,1.8-0.6c0.9-0.1,1.9,0,2.1-0.7c0.2-0.7-0.1-0.8-0.7-1.1c-0.5-0.3-1,0.1-1.9,0.3c-0.9,0.2-1.1,0.4-1.4-0.1
	c-0.3-0.5,0.2-0.3,0.6-1c0.5-0.7,1.4-0.9,1-1.4c-0.3-0.6-1.8-0.1-1.7-0.1c0.1,0,0.7-0.5,0.7-1s-0.2-0.6-0.7-0.4
	c-0.5,0.2-0.6,0.3-1.5,0.5s0.7-0.3,0.9-0.9c0.3-0.7,0.7-1,0.6-1.3c-0.2-0.3-0.1-0.7,0-1.2c0.1-0.5-0.6-0.4,0-0.9
	c0.6-0.5,0-1.1,0-0.9c0,0.3-1.1,0.6-1.3,0.6c-0.2,0-0.5-1.1,0.3-1.2c0.9,0,1.8-0.7,2.1-0.9s1-0.4,0.7-0.9c-0.3-0.6-1.5,0.2-1.8,0
	c-0.3-0.2-0.4-0.8,0-1.1c0.4-0.4,0.6-0.9,0.7-1c0.1-0.2,1-1.2,0.2-1c-0.9,0.2-0.9,0.6-1.9,0.6c-1,0-1,0.3-2-0.1
	c-0.9-0.5,0.1-0.5,0.7-0.9c0.6-0.4,1.2-1.2,1.6-1.2c0.3,0,1.2,0.7,1.5,0c0.3-0.7-0.6-1.1-0.8-1c-0.2,0.1-0.6-0.5-0.6-1.2
	c0-0.7,0.7-0.9,0.6-1.4c-0.1-0.5,0.1-1.3-0.6-1.3c-0.7,0-1.2,0.1-1.8,0.1c-0.6,0-1,0-1.3-0.3c-0.3-0.3,0.3-0.7,0.8-0.2
	c0.5,0.5,2-0.5,2-0.5s0.5-0.4,0.5-1s-0.9-0.1-0.9-0.1s-1.4,0.1-1.8,0c-0.3-0.1,0.1-0.5,0.5-0.8c0.4-0.3,1-0.4,1.1-0.9
	c0.1-0.5,0.8-0.3,0.1-0.5c-0.7-0.2-0.9-0.2-0.7-0.8s1-0.6,0.3-0.6c-0.7,0,0.3,0.1-0.7,0c-1-0.1-1,0.8-1-0.1s-1-0.7,0-0.9
	c1-0.1,1.7-0.2,1.7-0.2s0.2-1-0.5-0.8c-0.7,0.2-1.1,0.6-1.2,0c-0.1-0.6,0.2-0.3,0.5-0.7c0.3-0.5,0.8-1,0.4-1.2
	c-0.4-0.2-0.9-0.5-1-0.8c-0.1-0.3-0.4-1.3-0.9-0.5C59.5,120.6,59.5,120.6,59.5,120.6z"/>
<path id="XMLID_232_" class="st0" d="M52.3,138.2c0,0-0.2-0.3-0.8,0c-0.6,0.3-1.2,0.9-1.7,1c-0.5,0.1-1.1-0.5-1.6,0
	c-0.5,0.5-2.2,0.3-2,0c0.2-0.3-0.1,0.2,0.5-0.4s0.7-0.7,1.2-1.5s0.5-0.2,0.9-0.7s0.5-1,0.4-1.3c-0.1-0.2-0.3-0.2-0.7,0
	c-0.4,0.2-0.7,0.6-1.3,0.6c-0.5,0-1.2,0.2-1.5,0c-0.3-0.2-1.1-0.3-1.1-0.3s-0.5-0.3,0-0.4c0.5-0.1,0.8,0.2,1.3,0
	c0.5-0.2,0.9-0.3,1.5-0.4c0.6-0.1,1,0.2,1.4,0c0.3-0.2,0.5-0.2,0.9-0.5c0.3-0.3,0.6-0.6,0.6-0.8s-0.5-0.6-0.7-0.3
	c-0.2,0.2-0.7,0.6-0.9,0.6c-0.2,0-0.7,0.1-0.9,0c-0.2-0.1-1-0.2-1.1-0.3c-0.1,0-0.9,0-0.9,0s-0.4,0.2-0.5,0
	c-0.1-0.2-0.8-0.5-0.8-0.5s-0.3,0-0.7,0c-0.4,0-0.6-0.2-0.5-0.4c0.1-0.2,0.6,0.3,1,0c0.4-0.3,1.7-0.2,2.1,0c0.4,0.1,0.6-0.3,1-0.1
	c0.4,0.2,1-0.1,1.4,0c0.3,0.1,0.8-0.2,1.2-0.4c0.4-0.2,0.9-0.5,0.9-0.9c0-0.4,0.6-0.9,0.1-0.8c-0.4,0-0.2,0.5-0.7,0.6
	c-0.4,0.1-0.9,0.6-1.3,0.7c-0.4,0.1-0.8-0.4-1.3-0.3c-0.5,0.1-0.7,0.1-0.9,0.1c-0.5,0-1.5,0.4-1-0.4c0.5-0.8,1.4-0.6,1.6-0.8
	c0.2-0.2,0.4-0.4,0.3-0.8c-0.1-0.3,0.5-0.7,0-0.7s-1,0.6-1,0.6s-0.6,0.2-1.1,0.2c-0.4,0-0.7-0.2-0.6-0.4c0.1-0.2,0.3-0.2,0.9-0.5
	c0.6-0.3,1.6-0.1,1.8-0.7c0.2-0.5,0.4-0.8,0.6-1.2c0.2-0.3,0.4-0.8,0.4-0.8s-0.9,0.2-1,0.3c-0.1,0-0.4,0.1-1,0.2
	c-0.6,0.1-1-0.5-1-0.5s1.2,0.3,1.4,0c0.2-0.3,0-0.5,0.6-0.6c0.6-0.1-0.5-0.6-0.7-0.4c-0.2,0.1-0.7,0.3-1,0.5
	c-0.3,0.1-0.5,0.1-1.1,0.1c-0.5,0-0.6,0.2-0.9-0.2c-0.2-0.4-0.2-0.3,0.2-0.5c0.4-0.2,1.1,0.1,1.3,0c0.2-0.1,0.6,0.5,1-0.1
	c0.4-0.6,0.7-0.6,1.2-0.8c0.4-0.2,1.2-0.9,1.2-0.9s-0.4-0.1-0.7,0c-0.2,0.1-1.4-0.4-1.9,0c-0.5,0.4-0.5,0.8-1.2,0.6
	c-0.6-0.2-0.7-0.4-0.5-0.7c0.2-0.4,0.6-0.7,1.1-0.8c0.5-0.1,1.1-0.1,1.2-0.4c0.1-0.2,0.9-0.5,0.7-0.7c-0.2-0.2,0.3-0.1-0.2-0.2
	c-0.4,0-1.4,0.4-1.4,0.4s-1-0.5-1-0.4c0,0.1,0.5-0.3,0.9-0.6c0.3-0.2,0.5-0.1,1-0.4c0.5-0.3,0.6-0.6,0.7-0.8s-0.1-0.5-0.3-0.4
	c-0.2,0.1-0.7,0.4-0.9,0.4c-0.2,0-0.9,0.1-1,0.2c-0.1,0.1-0.3,0.4-1,0.3c-0.7-0.1-1-1-0.8-0.9c0.2,0.1,1.2,0.4,1.3,0
	c0.1-0.4,0.8-0.5,0.8-1.1c0-0.5,0.4-1.3,0.4-1.3s-0.1-0.5-0.5,0c-0.4,0.5-0.8,1.2-1,1.3c-0.2,0.1-0.5,0.6-0.6,0.3
	c-0.1-0.2,0-0.5,0.1-0.9c0.1-0.4,0.3-1.1,0.3-1.5c0-0.3,0-0.9-0.1-1.1c0-0.2-0.4-0.3-0.4,0c0,0.3-0.6,0.9-0.6,0.9s-0.4,0.3-0.4-0.1
	c0-0.4,0.1-0.5,0-1.3c-0.1-0.8-0.4-1.2-0.5-1.7c-0.1-0.5-0.7-0.9-0.5-0.5c0.1,0.4-0.3,0.6,0,1.4c0.3,0.8,0.7,1.4,0.5,1.7
	c-0.2,0.3-0.2,0.1-0.6-0.4c-0.4-0.5-1-0.5-1-0.5s0,0.8,0,1.2c0,0.3,0.3,0.4,0.5,0.7c0.2,0.3-0.1,0.6-0.6,0.4
	c-0.5-0.2-0.5-0.6-0.8-0.7c-0.2-0.1-0.3-0.3-0.3,0.2c0,0.5-0.4,0.8,0,1.1c0.4,0.2,1.1,0.5,1.3,0.5c0.1,0,0.8,0,0.9,0.3
	c0.1,0.3-0.1,0.7-0.4,0.6c-0.3-0.1-0.6,0-1.2-0.3c-0.5-0.2-0.5-0.8-0.8-0.8c-0.4,0,0.2,0.3,0,0.5c-0.2,0.1-0.4,0.1-0.7,0.3
	c-0.2,0.2,0.2,0.6,0.4,0.6c0.1,0,0.1,0.7,0.6,0.7c0.5,0,0,0.1,0.5,0c0.4,0,0.7,0.4,0.3,0.6c-0.4,0.1-0.8,0-1.2-0.1
	c-0.4-0.2-1.1-0.5-1.2-0.3c0,0.2,0.6,0.8,0,0.8c-0.6,0-0.7,0.4-0.8,0.6c0,0.1,0.3,0.4,0.6,0.8c0.2,0.4,2,0.6,2,0.6s0.6,0.4,0.3,0.6
	c-0.3,0.2-0.7,0.5-1.3,0.2c-0.5-0.3-0.1-0.3-0.9-0.4c-0.8-0.1-0.7-0.1-1.1-0.4c-0.4-0.3-0.6-0.6-0.8-0.3c-0.1,0.2-0.2,0.5,0,0.7
	c0.2,0.2,0.3,0.7,0.6,0.7c0.3,0-0.7,0.2-1.1-0.2c-0.4-0.5-0.8,0-0.6,0.4c0.4,0.5,0.4,0.4,0.6,0.8c0.2,0.5,1,0.5,1.3,0.7
	c0.3,0.2,0.1,0.5,0.4,0.8c0.2,0.3,1,0.5,1,0.5s0.5,0.2,1.2,0.2c0.6,0,1.2,0.2,1.2,0.2s-0.8,0.5-1.3,0.5c-0.5,0-1,0-1.7-0.2
	c-0.7-0.3-1-0.5-1.3-0.5c-0.3,0-0.3,0.3-0.2,0.7c0.1,0.3,0.8,0.1,1.1,0.4s0.5,0.6,0.3,0.6c-0.1,0-0.3,0.2-0.8,0.1
	c-0.5-0.1-0.6,0.2-0.4,0.4c0.2,0.2,0.6,0.3,0.9,0.7c0.3,0.3,1.2,0.3,1.4,0.3c0.1,0-0.3,0.3-0.8,0.4c-0.5,0.1-0.5,0-1.5-0.1
	c-1-0.1-1.5-0.8-1.5-0.4c0,0.6,0.2,0.4,0.3,1.3c0.1,0.8,0.2,0.7,0.6,0.9s0.6,0.6,0.8,0.8c0.2,0.2,0.4,0,1.1,0c0.7,0,0.7-0.1,1.4-0.2
	c0.7-0.1,1.7-0.4,1.7-0.4s0.4,0.1,0.1,0.4c-0.3,0.3-0.4,0.4-1.2,0.4c-0.8,0-1.5,0.2-1.7,0.3c-0.1,0.1-0.6,0.4-0.2,0.6
	c0.4,0.1,0.9,0.1,0.8,0.5c-0.1,0.4-0.5,0.8-0.9,0.4c-0.4-0.3-0.8,0-1.1-0.6c-0.3-0.5-0.8-0.6-0.8-0.3c0,0.3-0.6,0.6,0,1
	c0.7,0.4,1.5,0.2,1.5,0.4s0.5,0,0.7,0.2c0.2,0.2,0.8,0.4,1.3,0.2c0.4-0.2,0.9-0.3,1.5-0.5c0.6-0.1,0.9-0.5,0.8,0.2
	c-0.1,0.7,0,0.7-1,0.7c-1,0-0.8,0.4-1.6,0.6c-0.8,0.2-1,0.6-1.7,0.3c-0.7-0.3-0.5-0.9-1.3-0.9c-0.8,0-1.2,0-1.2,0s-0.2,0.5,0,0.9
	c0.2,0.4,0.6,0.6,1.2,0.6c0.6,0,0.4,0,1.3,0c0.9,0,1.2,0,1.9-0.2c0.6-0.2,1.2-0.8,1.4-0.3c0.2,0.5,0,0.8-0.8,1
	c-0.8,0.2-0.9,0.3-1.8,0.3c-0.9,0-1.2,0.1-1.7,0c-0.4,0-0.4,0.9-0.9,0.5c-0.5-0.4-0.2,0.4,0,0.6c0.2,0.2-0.8-0.2-1,0
	c-0.2,0.2,0,0.4,0,0.8c0,0.4,0.8,0.8,1,1.4c0.2,0.6,1.1,0.3,1.3,0.9c0.2,0.6,0.8,1.1,1.6,1.1c0.8,0,1.5,0.3,0.7,0.5
	c-0.7,0.2-1.3,0.1-1.7,0c-0.4-0.1-0.6-0.3-1.2-0.5c-0.6-0.2-0.7-0.6-1.2-0.4c-0.5,0.2-0.5,0.4-0.2,0.7c0.2,0.3,0.9,1,1.1,1.1
	c0.2,0,0.7-0.1,1.1,0c0.4,0.1,1.1-0.1,1.3,0c0.2,0.1,0.7,0.2,1,0.1c0.1,0,0.3-0.1,0.3-0.1c0.3-0.3,0.6-0.5,0.8-0.4
	c0.2,0.1,0.7,0,0.6,0.6c-0.1,0.6-0.6,0.9-1,0.6c-0.3-0.3-0.9-0.2-1.4,0.1c-0.5,0.3-0.2-0.3-1,0c-0.7,0.3-1.1,0.2-1.4,0.1
	s-0.6-0.8-0.7-0.2c-0.1,0.6,0.3,1.1,0.6,1.3c0.2,0.2,0.5,0.3,0.5,0.8s0.8,0.5,0.7,0.9c-0.1,0.3-0.6,0.8-1,0.6
	c-0.4-0.2-0.5-0.6-1.2-0.6c-0.7,0-1,0.1-1.5-0.1s-1-0.7-1.1-0.2c-0.1,0.4,1.2,1.7,1.6,1.8c0.4,0.1,0.3,0.3,1,0.4
	c0.6,0.1,0.7-0.1,1.2,0c0.5,0.1,0.9,0.3,1.3,0.3c0.4,0,1.4,0,1.4,0s0.7,0.1,0.6,0.3c-0.1,0.2-0.8,0.5-1.6,0.4c-0.7,0-1.1,0.4-1.7,0
	c-0.6-0.4-1.4-0.9-1.5-0.5c-0.1,0.4-0.6,0.7-1,0.6c-0.4-0.1-0.5,0.7-0.5,0.8c0,0-0.2,0.9,0.3,1c0.5,0.1,0.9,0.4,1.3,0.6
	c0.3,0.2,1.1-0.1,1.4,0c0.3,0.1,0.9,0.3,1.4,0.1c0.5-0.2,1.2-0.5,1.9-0.9c0.7-0.4,1-0.6,1.4-0.8c0.4-0.2,0.8,0.3,0.5,1
	c-0.3,0.7-1.3,1.1-1.9,1.3c-0.6,0.2-0.6,0.4-1.1,0.8c-0.5,0.3-0.2,0-1.4,0c-1.2,0-1.1-0.2-2.3,0.2c-1.1,0.3-1.1,0.1-1.5,0.5
	c-0.3,0.3-0.7-0.3-0.3,0.3c0.4,0.6,0.4,0.3,1.3,0.7c0.9,0.4,0.7,0.8,1.9,0.5c1.1-0.3,1.3-0.5,1.7-0.5c0.4,0,1.1-0.6,0.4,0
	c-0.7,0.6-1.1,1.2-1.5,1.2c-0.4,0-1.2-0.1-1.9,0c-0.6,0.1-0.9-0.1-1.5,0c-0.6,0.1-0.8,0.4-0.5,0.7c0.2,0.2-0.2,0.8,0.7,1.1
	c0.9,0.3,2,0.6,2.8,0c0.7-0.6,1.2-0.6,1.7-0.8c0.5-0.2,0.9-0.6,1.1-0.4c0.1,0.2,0.8,0.4,0.3,0.9c-0.5,0.5-0.2,0.5-1.1,0.9
	c-0.8,0.4-1.5,0.9-2.1,0.8c-0.6-0.1-1.3,0.6-2.2,0c-0.9-0.6-1.5-0.7-1.7-0.2c-0.1,0.5-0.5,1.2,0,1.5c0.5,0.2,1.4,0.5,1.4,0.9
	c0,0.4,0.7,1.4,1.2,0.9c0.5-0.5,1.6-0.5,2.2-0.9c0.6-0.4,1.7-0.8,2.3-1.1c0.6-0.2,1.9-1,2-0.6s0,8.3,0,8.3h1.7l0.1-7.8
	c0,0,0.4,0,0.5,0.4c0,0.4,0.4,0.6,0.6,0.9c0.1,0.3,0.5,0.8,0.8,0.8s0.7,0.2,0.8,0.5c0.1,0.3,0.5,0.4,0.8,0.6
	c0.3,0.2,0.8,0.2,1.3,0.3c0.5,0.1,0.6-0.3,1.1-0.4c0.5-0.1,1-0.2,1-0.6c0-0.4,0.2-0.7,0-0.8c-0.2-0.1-0.8,0-1.2,0
	c-0.4,0-1.6-0.2-2-0.4c-0.4-0.2-0.3-0.9-0.3-0.9s1-0.4,0.6-0.7c-0.4-0.3-0.4-0.5-0.9-0.4c-0.4,0.1-0.9-0.6-0.9-0.8
	c0-0.2,0-0.9,0.4-0.8c0.4,0.1,0.9,0.3,1.2,0.6c0.3,0.3,1-0.4,1.6-0.4c0.6,0,0.6,0,1.3-0.3c0.7-0.4,1-1,1-1.3c0-0.3-0.9-0.4-1.2-0.2
	c-0.3,0.1-1,0.8-1.9,0.1c-0.9-0.7-1.3-1-1.9-1c-0.6,0-1.3-0.2-1.6-0.6c-0.3-0.4-1.3-0.6-1.5-0.7c-0.2-0.1,0-2.1,0-2.1
	s1.3,0.3,1.3,0.8c0,0.4,0.2,0.9,0.3,1c0.1,0.1,0.5-0.2,1.3,0.2c0.8,0.4-0.1,0.2,0.8,0.4c0.9,0.2,1.2,0.1,1.9,0
	c0.7-0.2,0.8-0.1,1.3-0.4c0.5-0.2,1.4-0.1,1.2-0.9c-0.1-0.8-0.5-1.1-0.6-0.9c-0.1,0.1-0.7,0.4-0.7,0.1s-0.5-0.9-0.7-0.7
	c-0.1,0.2-0.3,0.4-0.8,0.3c-0.5-0.1-0.4-0.2-1.2-0.1c-0.7,0-0.4,0.2-1.1,0c-0.7-0.2-1.2-0.6-1.2-0.6s-0.4-0.7,0-0.5
	c0.5,0.2,0.5,0.2,1.3,0.2c0.7,0,1-0.3,1.5-0.1s1,0.4,1.5,0.2c0.4-0.2,1.1-0.5,1.3-0.9c0.1-0.4,0.5-0.8,0.5-0.8s-0.3-0.5-0.8-0.2
	c-0.5,0.3-0.7,0.2-0.5-0.1c0.2-0.3,0.8-1,0.6-1.1c-0.2-0.1-0.3-0.4-0.7-0.1c-0.4,0.3-0.6,0.1-1.5,0.3c-0.9,0.2-1.2,0.3-1.9,0.2
	c-0.7-0.1-0.7-0.3-1.7-0.4c-1,0-1.3,0.3-1.4-0.4c-0.1-0.7,0-1.2,0-1.2s0.4,0.2,0.5,0.4c0,0.2,0,0.1,0.5,0.7c0.5,0.5,0.8,0.2,1.6,0.1
	c0.8,0,0.2,0.1,1.5,0c1.3-0.2,1.3-0.4,1.9-0.6c0.6-0.2,1.1,0,1.4-0.4c0.3-0.4,0.7-0.4,0.7-1c0-0.6,0.4-1.1,0.1-1.3
	c-0.3-0.2-0.5,0.2-1.1,0.4c-0.6,0.2-1.5,0.4-1.7,0.3c-0.1-0.1-1-0.1-0.4-0.6c0.6-0.5,1.1-0.7,0.8-0.9c-0.3-0.2-0.9-0.5-0.3-0.7
	c0.6-0.2,0.9-0.8,0.9-0.8s0.7-0.1,0.6-0.7c0-0.6-0.7-0.4-0.7-0.8c0-0.4-1.2,0.1-1.8,0.1c-0.6,0-1,0.1-1.2-0.1c-0.2-0.2,0.4-1,1-0.9
	c0.6,0.1,1.4,0.1,1.5-0.5c0.1-0.6-0.5,0.1,0.1-0.6c0.6-0.7,0.5-0.7,1.2-1.1c0.7-0.4,0.3-0.1,1.1-0.7
	C52.6,138.9,52.3,138.2,52.3,138.2z"/>
<path id="XMLID_203_" class="st0" d="M28.5,91.9c-0.6-1.4-0.1-0.9-0.6-5.8c-0.5-4.8-1.6-0.2-1.5,1.1c0.1,1.3-0.4,3-0.4,3.6
	c0,0.6,0.8,2.1,0.2,2.3c-0.6,0.2-1.1-0.5-1.8-1.1c-0.7-0.6-1.2,0.4-1.2,1.1c0,0.8,0.8,1.4,0.8,2.3c0,0.9-0.1,2-0.1,3
	c0,1,1.3,1.6,1.3,1.6s0.5,0.3,0.7,0.7c0.2,0.4-1.3,0.4-2,0c-0.7-0.4-1.3-1.2-2.3-1c-1,0.2-1.1,1.3-1.1,1.3s-0.4,0.6,0,0.9
	s1.3,1.2,2,1.2c0.7,0-0.3,0.1-2.2-0.5c-1.9-0.6-0.7,1.8-0.7,1.8s1.4,0.6,1.1,1.7c-0.3,1.1-0.9,1.5,0,1.9c0.9,0.4-0.4,1.1-1.5,0.6
	c-1-0.5-2.1-0.5-1.6,0.2c0.5,0.6,1.2,0.3,1.2,1.6c0,1.3,0,1.7,0.5,2.2c0.5,0.5,0.6,0.8,0.5,1.7c-0.1,0.9,0.3,1.1,1.7,1.1
	c1.4,0,2.8-0.5,2.8,0c0,0.5,1.4,1.5,0.9,1.7c-0.5,0.2,0,0.3-2.2,0c-2.2-0.3-3.2,0-3.3,0.2c-0.1,0.2-0.5,0.2-1.4,1.1
	c-0.9,0.9-0.3,1.1-0.1,1.8c0.2,0.7-0.6,1.1-0.7,1.6c-0.2,0.5,0.8,0.2,1.2,1.5c0.4,1.2-1,1.4-1.3,1.4s-0.6,1.2,0,1.7
	c0.6,0.5,1.4,1.9,1.4,1.9c0,0-1,0.2-0.7,1.2c0.3,1,0.3,0.9,2,1.6c1.7,0.7,2.9,0.1,3.4,0.7c0.5,0.6-0.1,0.7-0.7,0.7
	c-0.6,0-1.1-0.3-2.2,0c-1.1,0.3-2.1,0-2.1,0s-0.5-1.3-0.7,0.1c-0.2,1.5,0.7,0.4,1,1.7c0.3,1.3-1,1.7-1.7,1c-0.7-0.7-3-1.7-3-0.9
	c0,0.8,0.1,1.4,0.9,2.4c0.8,1,2.2,1.4,3.2,1.5c1,0.1,2.3,0.5,1.9,0.9c-0.4,0.4-1.2,0.6-1.6,0.7c-0.4,0.1-1.5,0.8-1.4,1.9
	c0.1,1.1-1,1.2-1.2,1.5c-0.2,0.3-0.9,1.8-0.3,2.5c0.6,0.7-0.1,1.6-0.8,1.8c-0.7,0.2-1.9,1.8-0.7,2.1c1.2,0.3,2.7,1.1,3.3,1.1
	s3-0.8,3.7-1c0.7-0.2,2.2-0.8,2.5-0.8c0.3,0,0.2,1.4-1.3,1.8c-1.5,0.4-3.8,0.4-5,0.8s-2.1,0.8-1.6,1.6c0.5,0.8,0.5,1.1,1.6,1.4
	c1.1,0.3,3.3,1.1,4.4,0c1.1-1.1,2.5-1.1,3.6-1.8c1.1-0.7,1-0.3,0.8,0.8c-0.2,1.1-1.2,0.3-2,1.6c-0.8,1.2-0.6,2.2-0.3,2.4
	c0.3,0.2,1.4,0.7,1.9,0c0.5-0.7,1.3-1.1,1.3-1.1l-0.2,7.9h2.8v-8.3c0,0,1.2,0.5,1.3,1.2c0.1,0.7,0.9,0.9,1.8,0.5
	c0.9-0.4,2.9-1.1,1.9-1.9c-1-0.8-1.6-2.1-2.3-2.3c-0.7-0.2-1.8-1.3-0.4-1.1c1.4,0.2,1.3,0.8,3,0.8s1.8,0.4,3.3,0.2
	c1.5-0.2,3.8-0.5,3.2-1.5c-0.6-1-1.7-1.4-2.1-2.3c-0.4-0.9,1.7-0.4,0.6-2c-1-1.7,0.5-1.8-1-1.7c-1.6,0.2-1.4-1.7-3.3-1.2
	c-1.9,0.5-2.7-0.2-2.1-1c0.6-0.8,0-1.1-0.7-1.1c-0.7,0-2.2-0.7-2.2-0.7s1.3-0.4,2.4-0.4c1.1,0,0.6,0.7,3.3,0.5
	c2.7-0.2,1.4-0.7,2.8-0.9c1.4-0.2,2.9,0.1,3.2-1.1c0.3-1.1-0.2-1.3-1-1.7c-0.8-0.5-1.6,0.1-2.9,0.4c-1.3,0.3-1.6,0.6-2.1-0.1
	c-0.4-0.7,0.3-0.5,1-1.5c0.7-1,2.1-1.3,1.6-2.2c-0.5-0.9-2.7-0.1-2.6-0.1c0.2,0,1.1-0.8,1.1-1.6c0-0.8-0.3-0.9-1.1-0.6
	c-0.7,0.3-0.8,0.5-2.3,0.7c-1.4,0.2,1-0.4,1.4-1.4c0.4-1,1.1-1.6,0.8-2c-0.2-0.4-0.2-1.1,0-1.8c0.2-0.8-1-0.6,0-1.4
	c1-0.8,0-1.7,0-1.3c0,0.4-1.7,0.9-2,0.9s-0.8-1.8,0.5-1.8c1.3,0,2.8-1,3.2-1.4c0.4-0.4,1.5-0.6,1-1.5c-0.5-0.9-2.3,0.3-2.8,0
	c-0.4-0.3-0.6-1.2,0-1.8c0.6-0.6,0.9-1.3,1.1-1.6c0.2-0.3,1.6-1.8,0.3-1.5c-1.3,0.3-1.4,0.9-2.9,0.9c-1.5,0-1.6,0.5-3-0.2
	c-1.4-0.7,0.1-0.8,1-1.4c0.9-0.6,1.9-1.9,2.4-1.9c0.5,0,1.8,1.1,2.3,0c0.5-1.1-0.9-1.7-1.2-1.6c-0.2,0.1-0.9-0.8-0.9-1.9
	c0-1.1,1.1-1.4,0.9-2.2c-0.1-0.8,0.2-2-0.9-2c-1.1,0-1.9,0.1-2.8,0.1c-0.9,0-1.6,0-2-0.4c-0.4-0.4,0.4-1,1.2-0.3
	c0.8,0.7,3-0.7,3-0.7s0.7-0.6,0.7-1.5c0-0.9-1.4-0.2-1.4-0.2s-2.2,0.2-2.7,0c-0.5-0.2,0.2-0.7,0.8-1.2c0.6-0.5,1.6-0.6,1.7-1.3
	c0.1-0.7,1.2-0.4,0.1-0.7s-1.4-0.3-1-1.2c0.4-0.9,1.5-0.9,0.4-0.9c-1.1,0,0.4,0.1-1.1,0c-1.5-0.1-1.5,1.2-1.5-0.1
	c0-1.3-1.6-1.1,0-1.3c1.6-0.2,2.6-0.3,2.6-0.3s0.3-1.5-0.8-1.2c-1.1,0.3-1.7,0.9-1.8,0c-0.1-0.9,0.3-0.4,0.8-1.1
	c0.5-0.7,1.2-1.6,0.6-1.9c-0.6-0.3-1.3-0.8-1.5-1.2c-0.2-0.4-0.6-2-1.3-0.7C28.5,91.9,28.5,91.9,28.5,91.9z"/>
<path id="XMLID_202_" class="st0" d="M22.1,115.2c0,0-0.3-0.5-1.3,0c-1,0.5-1.8,1.4-2.6,1.5c-0.8,0.2-1.7-0.8-2.4,0
	c-0.8,0.8-3.4,0.4-3,0c0.4-0.4-0.2,0.3,0.8-0.6s1.1-1.1,1.9-2.3c0.8-1.1,0.8-0.4,1.4-1.1c0.5-0.8,0.8-1.5,0.5-2
	c-0.1-0.2-0.5-0.3-1.1,0c-0.6,0.3-1.1,1-2,1c-0.8,0-1.8,0.3-2.3,0c-0.5-0.3-1.7-0.5-1.7-0.5s-0.8-0.4,0-0.6c0.8-0.2,1.2,0.2,2,0
	c0.8-0.2,1.4-0.4,2.3-0.6c1-0.2,1.6,0.3,2.1,0c0.5-0.3,0.8-0.3,1.4-0.8c0.5-0.5,0.9-0.9,0.9-1.3c0-0.4-0.8-0.9-1.1-0.5
	c-0.3,0.4-1.1,0.9-1.4,1c-0.3,0.1-1.1,0.2-1.4,0.1c-0.4-0.2-1.5-0.4-1.7-0.5c-0.2-0.1-1.4,0.1-1.4,0.1s-0.6,0.4-0.8,0
	c-0.2-0.4-1.2-0.8-1.2-0.8s-0.4,0-1,0c-0.6,0-1-0.2-0.8-0.5c0.2-0.3,0.9,0.5,1.5,0c0.6-0.5,2.6-0.3,3.2-0.1c0.7,0.2,0.9-0.5,1.5-0.2
	c0.6,0.3,1.6-0.2,2.1-0.1c0.5,0.1,1.2-0.2,1.9-0.6c0.7-0.4,1.4-0.8,1.4-1.4c0-0.6,0.9-1.4,0.2-1.3s-0.4,0.8-1.1,1
	c-0.7,0.2-1.4,0.9-2,1.1c-0.6,0.2-1.2-0.6-2-0.4c-0.8,0.2-1,0.1-1.4,0.2c-0.8,0-2.4,0.6-1.5-0.6c0.8-1.2,2.2-0.8,2.5-1.2
	c0.3-0.4,0.6-0.7,0.5-1.2c-0.2-0.5,0.8-1.1,0-1.1c-0.8,0-1.6,1-1.6,1s-1,0.4-1.7,0.4c-0.7,0-1.1-0.3-1-0.6c0.2-0.3,0.5-0.3,1.4-0.8
	c0.9-0.5,2.4-0.2,2.8-1.1c0.4-0.8,0.6-1.3,1-1.8c0.4-0.5,0.6-1.2,0.6-1.2s-1.4,0.4-1.6,0.5c-0.2,0.1-0.6,0.2-1.5,0.3
	c-0.9,0.2-1.6-0.8-1.6-0.8s1.8,0.5,2.2,0s-0.1-0.8,0.9-0.9c1-0.2-0.8-0.9-1.1-0.7c-0.3,0.2-1.1,0.5-1.6,0.8
	c-0.5,0.2-0.8,0.2-1.7,0.2s-1,0.3-1.4-0.3c-0.4-0.6-0.3-0.4,0.3-0.7c0.6-0.3,1.7,0.1,2,0c0.4-0.1,1,0.8,1.6-0.1s1.1-1,1.8-1.3
	c0.7-0.3,1.8-1.4,1.8-1.4s-0.7-0.2-1.1,0c-0.4,0.2-2.1-0.7-2.9-0.1c-0.8,0.6-0.8,1.2-1.8,0.9c-1-0.3-1.1-0.6-0.8-1.1
	c0.3-0.5,1-1.1,1.7-1.3c0.8-0.2,1.7-0.2,1.9-0.6c0.2-0.4,1.4-0.8,1.1-1.1c-0.2-0.3,0.4-0.2-0.2-0.3c-0.7-0.1-2.2,0.6-2.2,0.6
	s-1.5-0.8-1.6-0.6c-0.1,0.2,0.8-0.5,1.4-0.9c0.5-0.4,0.8-0.2,1.6-0.7c0.8-0.5,0.9-1,1.1-1.2c0.1-0.2-0.2-0.8-0.5-0.6
	s-1.1,0.6-1.4,0.6s-1.4,0.2-1.6,0.3c-0.2,0.2-0.5,0.6-1.6,0.5s-1.6-1.5-1.3-1.4c0.3,0.1,1.8,0.6,2,0c0.2-0.6,1.2-0.8,1.2-1.6
	c0-0.8,0.6-2,0.6-2s-0.2-0.8-0.8,0c-0.6,0.8-1.2,1.8-1.5,2c-0.3,0.2-0.8,0.9-1,0.5c-0.2-0.4,0-0.8,0.2-1.4C9.7,82.2,10,81,10,80.5
	s-0.1-1.4-0.2-1.7c-0.1-0.3-0.6-0.5-0.7,0c-0.1,0.5-1,1.4-1,1.4S7.6,80.7,7.5,80c-0.1-0.7,0.2-0.8,0-2c-0.2-1.3-0.6-1.8-0.8-2.6
	S5.7,74.1,6,74.7c0.2,0.6-0.5,0.9,0,2.1C6.4,78,7,78.9,6.7,79.4c-0.3,0.5-0.3,0.2-1-0.6C5.1,78,4.2,78,4.2,78s-0.1,1.3,0,1.8
	C4.2,80.3,4.6,80.5,5,81c0.4,0.5-0.1,1-0.9,0.6c-0.7-0.4-0.8-1-1.2-1.1c-0.4-0.2-0.5-0.5-0.5,0.4c-0.1,0.8-0.7,1.3,0,1.7
	c0.7,0.4,1.7,0.8,2,0.8c0.2,0.1,1.2-0.1,1.4,0.5c0.2,0.5-0.2,1.1-0.6,1c-0.5-0.2-1-0.1-1.8-0.5c-0.8-0.4-0.7-1.2-1.3-1.2
	c-0.6,0,0.4,0.5,0,0.8c-0.4,0.2-0.7,0.2-1,0.5c-0.4,0.3,0.4,0.9,0.6,1c0.2,0.1,0.2,1.1,0.9,1.1c0.8,0.1,0.1,0.2,0.8,0.1
	c0.7-0.1,1.1,0.7,0.5,0.9c-0.6,0.2-1.2,0.1-1.8-0.2c-0.6-0.3-1.7-0.8-1.8-0.5c-0.1,0.4,1,1.3,0,1.3c-1,0-1.1,0.7-1.2,0.9
	c-0.1,0.2,0.5,0.6,0.9,1.2c0.4,0.6,3,0.9,3,0.9s0.9,0.7,0.5,1s-1.1,0.8-2,0.3c-0.8-0.5-0.2-0.5-1.4-0.6c-1.2-0.2-1.1-0.2-1.7-0.7
	s-1-0.9-1.2-0.5c-0.2,0.4-0.3,0.8,0,1.1c0.3,0.3,0.5,1.1,1,1.1c0.5,0.1-1.1,0.4-1.7-0.4c-0.7-0.8-1.3,0-0.9,0.6
	c0.6,0.8,0.7,0.5,1,1.3c0.3,0.8,1.5,0.7,1.9,1.1c0.5,0.4,0.2,0.8,0.6,1.3c0.4,0.5,1.6,0.8,1.6,0.8s0.8,0.3,1.8,0.3
	c1,0,1.8,0.3,1.8,0.3s-1.2,0.8-2,0.8c-0.8-0.1-1.5,0.1-2.6-0.4c-1.1-0.5-1.6-0.8-2-0.8c-0.5,0-0.5,0.5-0.3,1.1
	c0.2,0.5,1.3,0.2,1.7,0.7c0.5,0.5,0.8,0.9,0.5,1c-0.2,0.1-0.5,0.3-1.3,0.2c-0.8-0.2-1,0.3-0.7,0.7c0.3,0.4,0.9,0.5,1.4,1.1
	c0.5,0.5,1.9,0.5,2.1,0.5c0.2,0-0.5,0.5-1.3,0.7c-0.8,0.2-0.8,0-2.3-0.2s-2.4-1.2-2.3-0.7c0.1,0.9,0.3,0.7,0.5,2
	c0.2,1.3,0.4,1.1,1,1.4c0.6,0.4,1,1,1.3,1.3c0.3,0.3,0.7,0.1,1.7,0c1.1-0.1,1.1-0.2,2.2-0.4c1.1-0.2,2.6-0.6,2.6-0.6
	s0.6,0.2,0.2,0.7c-0.5,0.5-0.6,0.6-1.9,0.7c-1.3,0.1-2.3,0.4-2.6,0.5c-0.2,0.2-1,0.7-0.4,0.9c0.6,0.2,1.4,0.2,1.2,0.8
	c-0.2,0.7-0.8,1.2-1.4,0.7s-1.2-0.1-1.7-0.9c-0.5-0.8-1.2-1-1.2-0.5c0,0.5-1,1,0.1,1.6s2.3,0.3,2.3,0.7c0,0.4,0.8,0.1,1.1,0.4
	c0.3,0.3,1.3,0.7,2,0.4c0.7-0.3,1.4-0.5,2.3-0.8c0.9-0.2,1.4-0.8,1.2,0.3c-0.2,1.1,0,1.1-1.5,1.1c-1.5,0-1.2,0.6-2.5,0.9
	c-1.3,0.3-1.5,1-2.6,0.5c-1.1-0.5-0.8-1.4-2-1.4c-1.3,0-1.8,0-1.8,0s-0.4,0.8,0,1.4c0.4,0.6,0.9,0.9,1.8,1c0.9,0.1,0.6,0.1,2,0.1
	c1.4,0,1.9,0.1,2.9-0.3c1-0.4,1.9-1.2,2.2-0.5c0.3,0.8,0,1.2-1.3,1.5c-1.3,0.3-1.4,0.5-2.8,0.5c-1.4,0.1-1.9,0.2-2.6,0.1
	c-0.7-0.1-0.7,1.3-1.4,0.7c-0.8-0.6-0.4,0.6,0,0.9c0.4,0.3-1.3-0.3-1.6,0c-0.3,0.3-0.1,0.7,0,1.3c0.1,0.6,1.3,1.2,1.6,2.2
	c0.3,1,1.7,0.5,2,1.4c0.4,0.9,1.3,1.7,2.5,1.7c1.2,0.1,2.3,0.5,1.1,0.8c-1.1,0.3-2,0.2-2.6,0c-0.7-0.2-0.9-0.5-1.8-0.8
	c-0.9-0.4-1.1-1-1.8-0.7c-0.8,0.3-0.8,0.6-0.4,1.1c0.4,0.5,1.4,1.6,1.7,1.7c0.4,0.1,1.1-0.2,1.7,0c0.6,0.2,1.7-0.2,2,0
	c0.3,0.2,1,0.3,1.6,0.2c0.2,0,0.4-0.1,0.5-0.2c0.5-0.5,0.9-0.8,1.2-0.7s1.1,0,1,0.9c-0.2,0.9-1,1.4-1.5,0.9
	c-0.5-0.5-1.4-0.3-2.1,0.2c-0.8,0.4-0.4-0.4-1.5,0c-1.1,0.4-1.7,0.3-2.2,0.1c-0.5-0.1-1-1.3-1.1-0.4c-0.2,0.9,0.5,1.7,0.9,2
	c0.4,0.3,0.8,0.5,0.8,1.2c0,0.7,1.3,0.8,1.1,1.4c-0.2,0.5-0.9,1.2-1.5,0.9c-0.6-0.3-0.8-1-1.9-1c-1.1,0-1.5,0.2-2.3-0.2
	c-0.8-0.4-1.5-1.1-1.7-0.4c-0.2,0.7,1.8,2.6,2.5,2.8c0.7,0.2,0.5,0.5,1.5,0.7c1,0.2,1.1-0.2,1.9,0c0.8,0.2,1.4,0.5,2,0.5
	c0.7,0.1,2.1,0,2.1,0s1.1,0.2,1,0.5c-0.2,0.4-1.3,0.8-2.4,0.7c-1.1-0.1-1.7,0.5-2.6,0c-0.9-0.5-2.1-1.4-2.3-0.8
	c-0.2,0.6-0.9,1.1-1.5,1c-0.6-0.2-0.8,1.1-0.8,1.2s-0.3,1.4,0.5,1.6c0.8,0.2,1.4,0.6,2,0.9c0.5,0.3,1.7-0.2,2.2,0
	c0.5,0.2,1.4,0.4,2.2,0.1c0.8-0.3,1.8-0.8,2.9-1.4c1.1-0.6,1.5-0.9,2.1-1.2c0.6-0.3,1.3,0.5,0.8,1.6c-0.5,1.1-2,1.7-2.9,2
	c-0.9,0.3-0.9,0.7-1.7,1.2c-0.8,0.5-0.4,0.1-2.2,0s-1.7-0.2-3.5,0.3c-1.7,0.5-1.7,0.2-2.3,0.7c-0.5,0.5-1.1-0.5-0.5,0.5
	c0.6,1,0.7,0.5,2,1.1c1.4,0.7,1.1,1.3,2.9,0.8c1.7-0.5,2-0.8,2.6-0.8s1.7-1,0.6,0c-1.1,1-1.7,1.8-2.3,1.8c-0.7,0-1.9-0.2-2.9,0
	c-1,0.2-1.4-0.2-2.3,0c-1,0.2-1.2,0.7-0.8,1.1c0.4,0.4-0.3,1.2,1.1,1.7c1.4,0.5,3.1,0.9,4.2,0c1.1-0.9,1.8-0.9,2.6-1.2
	c0.8-0.3,1.4-0.9,1.7-0.6c0.2,0.3,1.2,0.6,0.5,1.4c-0.8,0.8-0.4,0.8-1.7,1.4c-1.3,0.7-2.3,1.4-3.2,1.2c-0.9-0.2-2,0.9-3.4,0
	c-1.4-0.9-2.4-1-2.6-0.2c-0.2,0.8-0.8,1.9,0,2.3c0.8,0.4,2.1,0.8,2.1,1.4c0,0.7,1.1,2.2,1.8,1.4c0.8-0.8,2.4-0.8,3.4-1.4
	c1-0.6,2.6-1.3,3.5-1.7c1-0.4,2.9-1.5,3-1c0.2,0.5,0.1,12.7,0.1,12.7h2.6l0.2-11.9c0,0,0.7,0,0.8,0.7c0.1,0.7,0.7,0.9,0.9,1.4
	c0.2,0.5,0.8,1.3,1.2,1.3c0.4,0,1.1,0.4,1.3,0.8s0.8,0.6,1.3,0.9c0.5,0.3,1.2,0.3,2,0.5c0.8,0.2,1-0.5,1.7-0.7
	c0.8-0.2,1.5-0.3,1.5-0.9s0.3-1.1,0-1.3c-0.3-0.2-1.2,0-1.9,0c-0.7,0-2.4-0.3-3-0.7c-0.6-0.4-0.5-1.4-0.5-1.4s1.5-0.6,0.9-1.1
	c-0.6-0.5-0.7-0.8-1.4-0.7c-0.7,0.2-1.4-0.9-1.4-1.2c0-0.3,0-1.4,0.7-1.2c0.7,0.2,1.4,0.5,1.9,1c0.5,0.5,1.6-0.6,2.5-0.7
	c0.9-0.1,0.9,0.1,2-0.5c1.1-0.6,1.6-1.6,1.6-2c0-0.5-1.4-0.6-1.8-0.4c-0.5,0.2-1.6,1.2-2.9,0.2c-1.4-1.1-2-1.5-2.9-1.6s-2-0.4-2.5-1
	c-0.5-0.6-2-0.9-2.3-1.1c-0.3-0.2,0.1-3.2,0.1-3.2s2,0.5,2,1.2s0.3,1.4,0.5,1.6c0.2,0.2,0.8-0.3,2,0.4c1.2,0.7-0.2,0.3,1.2,0.7
	c1.4,0.4,1.8,0.2,2.9-0.1s1.3-0.2,2-0.6c0.8-0.4,2.1-0.2,1.9-1.4c-0.2-1.2-0.8-1.7-1-1.4c-0.2,0.2-1.1,0.6-1.1,0.2
	c0-0.5-0.8-1.4-1.1-1.1c-0.2,0.3-0.5,0.6-1.2,0.5c-0.8-0.2-0.7-0.3-1.8-0.2c-1.1,0.1-0.7,0.4-1.7,0c-1.1-0.4-1.8-0.9-1.8-0.9
	s-0.7-1.1,0.1-0.8c0.8,0.4,0.8,0.4,2,0.4s1.5-0.5,2.3-0.2c0.8,0.4,1.6,0.6,2.3,0.3c0.7-0.3,1.7-0.8,2-1.4c0.2-0.7,0.8-1.3,0.8-1.3
	s-0.5-0.8-1.3-0.3c-0.8,0.5-1.1,0.3-0.8-0.2c0.3-0.5,1.2-1.5,0.9-1.7c-0.3-0.2-0.5-0.6-1.1-0.2c-0.6,0.5-0.9,0.2-2.3,0.5
	c-1.4,0.3-1.8,0.5-2.9,0.3c-1.1-0.2-1.1-0.5-2.6-0.6c-1.5-0.1-2,0.5-2.2-0.7c-0.2-1.1-0.1-1.9-0.1-1.9s0.7,0.4,0.8,0.7
	c0.1,0.3,0,0.2,0.8,1.1c0.8,0.8,1.2,0.3,2.5,0.2c1.3-0.1,0.3,0.2,2.3-0.1c2-0.3,2-0.7,2.9-1c0.9-0.3,1.7,0,2.2-0.7
	c0.5-0.7,1.1-0.7,1.1-1.6c0-0.9,0.7-1.7,0.2-2c-0.5-0.3-0.8,0.4-1.7,0.7c-0.9,0.3-2.3,0.7-2.6,0.5c-0.2-0.2-1.6-0.2-0.6-1
	c1-0.8,1.7-1.1,1.3-1.4c-0.5-0.3-1.4-0.8-0.5-1.1c1-0.4,1.4-1.3,1.4-1.3s1.1-0.2,1-1.1c-0.1-0.9-1.1-0.6-1.1-1.3
	c0-0.7-1.8,0.2-2.7,0.2c-0.9,0.1-1.5,0.2-1.8-0.2c-0.3-0.3,0.6-1.6,1.6-1.4c1,0.2,2.2,0.2,2.3-0.8c0.2-1-0.8,0.2,0.2-1
	c1-1.1,0.8-1.1,1.9-1.7c1.1-0.6,0.5-0.2,1.7-1.1C22.5,116.3,22.1,115.2,22.1,115.2z"/>
<path id="XMLID_201_" class="st0" d="M-12.1,152.5c0,0,33.9,3.7,42.3,10.5s27,8,46.4,11.7c19.3,3.7,78.2,14.2,108.7,16.4
	c30.5,2.2,49.1,13.9,85.4,17.7c12.3,1.3,33.9-2.2,71.7,2.8c37.8,5,125.9-18.4,125.9-18.4l15.7,0.6l234.8,15.7v94.3l-730.8-4.1V152.5
	z"/>
<path id="XMLID_386_" class="st0" d="M682.2,24.5c1.7-3.9,0.3-2.6,1.7-15.9c1.4-13.3,4.4-0.5,4.1,3.1c-0.3,3.6,1.1,8.4,1.1,10
	s-2.2,5.8-0.6,6.4c1.7,0.6,3.1-1.4,5-3.1c1.9-1.7,3.3,1,3.3,3.2s-2.2,3.8-2.2,6.3s0.3,5.6,0.3,8.3c0,2.8-3.6,4.4-3.6,4.4
	s-1.4,0.8-1.8,1.9c-0.4,1.1,3.5,1.1,5.4,0c1.9-1.1,3.6-3.3,6.4-2.8c2.8,0.6,3.1,3.6,3.1,3.6s1.1,1.7,0,2.5c-1.1,0.8-3.6,3.3-5.6,3.3
	c-1.9,0,0.7,0.3,6.1-1.4c5.3-1.7,2,5,2,5s-3.9,1.7-3.1,4.7c0.8,3.1,2.5,4.2,0,5.3c-2.5,1.1,1.2,3.1,4.1,1.7c2.9-1.4,5.9-1.3,4.5,0.5
	c-1.4,1.7-3.3,0.9-3.3,4.5s0,4.7-1.4,6.1c-1.4,1.4-1.7,2.2-1.4,4.7c0.3,2.5-0.8,3.1-4.7,3.1c-3.9,0-7.8-1.4-7.8,0
	c0,1.4-3.9,4.2-2.5,4.7c1.4,0.6,0.1,0.8,6.2,0c6.1-0.8,8.9-0.1,9.1,0.5c0.3,0.6,1.4,0.6,3.9,3.1c2.5,2.5,0.8,3.1,0.3,5
	c-0.6,1.9,1.5,3.1,2,4.3c0.5,1.2-2.3,0.7-3.4,4c-1.1,3.3,2.8,3.9,3.5,3.9c0.7,0,1.8,3.3,0,4.7c-1.8,1.4-3.7,5.1-3.7,5.2
	c0,0.1,2.8,0.6,1.9,3.4c-0.8,2.8-0.8,2.5-5.6,4.4c-4.7,1.9-8.1,0.3-9.5,1.9c-1.4,1.7,0.3,1.9,1.9,1.9c1.7,0,3.1-0.8,6.1,0
	c3.1,0.8,5.8,0,5.8,0s1.4-3.7,1.9,0.4s-1.9,1-2.8,4.6c-0.8,3.6,2.8,4.7,4.7,2.8c2-1.9,8.4-4.7,8.4-2.5c0,2.2-0.3,3.9-2.5,6.7
	c-2.2,2.8-6.1,3.9-8.9,4.2c-2.8,0.3-6.4,1.4-5.3,2.5c1.1,1.1,3.3,1.7,4.4,1.9c1.1,0.3,4.2,2.2,3.9,5.3c-0.3,3.1,2.8,3.3,3.3,4.2
	c0.6,0.8,2.5,5,0.8,7c-1.7,1.9,0.3,4.4,2.2,5c1.9,0.6,5.3,5,1.9,5.8c-3.3,0.8-7.5,3.1-9.2,3.1c-1.7,0-8.3-2.2-10.1-2.8
	c-1.8-0.6-6-2.2-6.8-2.2s-0.6,3.9,3.6,5c4.2,1.1,10.6,1.1,13.9,2.2c3.3,1.1,5.8,2.2,4.4,4.4c-1.4,2.2-1.4,3.1-4.4,3.9
	c-3.1,0.8-9.2,3.1-12.2,0c-3.1-3.1-7-3.1-10-5s-2.8-0.8-2.2,2.2c0.6,3.1,3.3,0.9,5.6,4.3c2.2,3.4,1.7,5.9,0.8,6.5
	c-0.8,0.6-3.9,1.9-5.3,0c-1.4-1.9-3.6-3.1-3.6-3.1l0.6,22h-7.8V203c0,0-3.3,1.4-3.6,3.3c-0.3,1.9-2.5,2.5-5,1.4
	c-2.5-1.1-8.1-3.1-5.3-5.3c2.8-2.2,4.4-5.8,6.4-6.4c1.9-0.6,5-3.6,1.1-3.1c-3.9,0.6-3.7,2.1-8.3,2.2c-4.6,0.1-5.1,1.1-9.3,0.6
	c-4.2-0.6-10.6-1.4-8.9-4.2c1.7-2.8,4.7-3.9,5.8-6.4c1.1-2.5-4.6-1-1.7-5.6c2.9-4.6-1.4-5,2.9-4.6c4.3,0.4,3.8-4.6,9.1-3.2
	c5.3,1.4,7.5-0.6,5.8-2.8c-1.7-2.2,0-3.1,1.9-3.1s6.1-1.9,6.1-1.9S673,163,670,163c-3.1,0-1.5,1.8-9,1.4c-7.5-0.4-4-1.9-7.7-2.5
	c-3.8-0.6-8,0.1-8.8-3c-0.8-3.1,0.5-3.5,2.8-4.8c2.3-1.3,4.4,0.3,8.1,1.1c3.6,0.8,4.5,1.7,5.7-0.3c1.2-1.9-0.7-1.4-2.7-4.2
	c-1.9-2.8-5.8-3.6-4.4-6.1c1.4-2.5,7.6-0.3,7.1-0.3c-0.4,0-2.9-2.2-2.9-4.4c0-2.2,0.9-2.5,2.9-1.7c2.1,0.8,2.3,1.4,6.2,1.9
	c3.9,0.6-2.8-1.1-3.9-3.9c-1.1-2.8-3-4.4-2.3-5.6c0.7-1.1,0.4-2.9,0-5.1c-0.4-2.2,2.7-1.6,0-3.8c-2.7-2.2-0.1-4.7,0-3.6
	c0.1,1.1,4.6,2.5,5.4,2.5c0.8,0,2.2-4.9-1.4-4.9c-3.6-0.1-7.8-2.8-8.9-4c-1.1-1.1-4.2-1.7-2.8-4c1.4-2.4,6.5,0.7,7.7,0
	c1.2-0.7,1.6-3.2,0-4.9c-1.6-1.7-2.4-3.6-2.9-4.4c-0.6-0.8-4.4-5-0.8-4.2c3.6,0.8,3.9,2.5,8.1,2.5s4.4,1.4,8.3-0.6
	c3.9-1.9-0.3-2.2-2.8-3.9c-2.5-1.7-5.3-5.3-6.7-5.3s-5,3.1-6.4,0c-1.4-3.1,2.6-4.7,3.2-4.4c0.7,0.3,2.6-2.2,2.6-5.3
	c0-3.1-3-3.9-2.6-6.1c0.4-2.2-0.4-5.6,2.6-5.6c3.1,0,5.3,0.3,7.8,0.3c2.5,0,4.4,0,5.6-1.1c1.1-1.1-1.1-2.8-3.3-0.8
	c-2.2,1.9-8.3-1.9-8.3-1.9s-1.9-1.7-1.9-4.2c0-2.5,3.9-0.6,3.9-0.6s6.1,0.6,7.5,0c1.4-0.6-0.6-1.9-2.2-3.3c-1.7-1.4-4.4-1.7-4.7-3.6
	c-0.3-1.9-3.3-1.1-0.3-1.9c3.1-0.8,3.9-0.8,2.8-3.3c-1.1-2.5-4.2-2.5-1.1-2.5c3.1,0-1.1,0.3,3.1,0c4.2-0.3,4.2,3.3,4.2-0.3
	c0-3.6,4.4-3.1,0-3.6c-4.4-0.6-7.2-0.8-7.2-0.8s-0.8-4.2,2.2-3.3c3.1,0.8,4.7,2.5,5,0c0.3-2.5-0.8-1.1-2.2-3.1
	c-1.4-1.9-3.3-4.4-1.7-5.3c1.7-0.8,3.6-2.2,4.2-3.3c0.6-1.1,1.7-5.6,3.6-1.9C682.2,24.5,682.2,24.5,682.2,24.5z"/>
<g id="XMLID_196_">
	<path id="XMLID_204_" class="st0" d="M473.4,142.7l0.2-1.4c-2.3,0-1.1,4.8-1.1,4.8l-1.8,2.1c0.4-1.9-0.4-3.4,0.1-5.3
		c0.5-1.9,2.3-2.5,3.2-2.7v-0.6h0.8v-0.5h1.2v0.5h0.8v1.7c0.5,0.5,0.8,1.1,1,1.3c0.3,0.2,5,1.3,5,1.3l1.3-6.8l0.7-5.4l1.6-3v-1
		l1.7-2.7l0-1.4c-0.9-1-2.3-4.2-2.8-5.2c-1.3-0.7-3.6-1.9-4.2-2.3c-1.1-0.8-0.5-1.8,0-2.4c0.2-0.3,2-0.4,3.9-0.4
		c0.1-0.5,0.1-1,0.3-1.6c0.3-1.5,3.5-3.4,5.2-3.2c1.7,0.2,5.3,2.6,5.5,3.2c0.2,0.5,0.6,4.1,0.6,4.1l0,4.2l1.1,0.9l0.8,1.9l0.5-0.6
		l3.9,0.7l0.4,1.1c0.8,0.1,2.6,1.8,2.6,1.8s6.6,1.4,8.5,2.4c1.9,1,4.3,7.5,4.3,7.5v3l-1.5,3.6l-0.3,3.6l-1,0.8l0.4,5.1l-0.5,4.6
		l-0.6,2.1c0,0-0.9,0.2-1.9,0.6v2.7h-2v-2.1c-0.9,0.1-2.1,0-3.1-0.1v8h-1.6v-7.8l-0.8,1l-0.5,1v0l-2.8,15.5c0.2,1.1,0.5,2.4,0.5,2.4
		s2.3,12.7,2.3,12.9c0,0.2,0.1,3.4,0.1,3.4l0.3,2.2v2.1l-0.2,0.8c0,0-3.2,1.3-8.3,1.7c-5.1,0.4-6.5-1.8-6.5-1.8l0-1l0.4-0.8l0.5-0.3
		c0.7-1,4.3-1.1,4.3-1.1l-0.4-2l0.2-0.5l-6.1-0.4l-1-0.7v-1.7l1.3-2.2l3.6-1l0.1-7.1c-0.4-0.8-0.9-1.7-0.9-1.7l-5.1-11.5l0.2-8.1
		l-0.5-2.1l0.4-1.8v-3.5l-0.2-2.4l0.5-1l-0.1-5.4c0,0-2,3.8-2.1,4.3c-0.1,0.5-1.7,1-1.7,1c-4,0.5-6.6-1.3-7.8-2.5v0.8h-0.8v49.6
		c0,0.3-0.3,0.6-0.6,0.6l0,0c-0.3,0-0.6-0.3-0.6-0.6v-49.6H474v-2.2l-0.9-1.6L473.4,142.7z"/>
</g>
</svg>
